<svg version="1.1" id="Layer_1" xmlns="http://www.w3.org/2000/svg" xmlns:xlink="http://www.w3.org/1999/xlink" x="0px" y="0px"
	 width="100%" viewBox="0 0 1200 1200" enable-background="new 0 0 1200 1200" xml:space="preserve">
<path fill="#003399" opacity="1.000000" stroke="none" 
	d="
M664.000000,1201.000000 
	C442.666656,1201.000000 221.833328,1201.000000 1.000000,1201.000000 
	C1.000000,801.000000 1.000000,401.000000 1.000000,1.000000 
	C401.000000,1.000000 801.000000,1.000000 1201.000000,1.000000 
	C1201.000000,401.000000 1201.000000,801.000000 1201.000000,1201.000000 
	C1022.166687,1201.000000 843.333313,1201.000000 664.000000,1201.000000 
M952.780701,288.310974 
	C951.542358,287.868835 950.304077,287.426727 948.120300,286.970825 
	C714.393860,286.976044 480.667358,286.981262 246.163483,286.995148 
	C244.135849,287.654877 242.090836,288.265991 240.083572,288.982727 
	C231.066650,292.202515 222.996063,303.623444 222.995056,313.128693 
	C222.992920,333.289185 222.994507,353.449707 222.994507,373.610199 
	C222.994385,543.724854 222.991730,713.839478 223.021057,883.954102 
	C223.021454,886.252869 222.898758,888.765991 223.731262,890.814148 
	C227.961884,901.222351 240.113586,911.112244 253.577713,911.098633 
	C406.697357,910.943665 559.817261,911.000793 712.937073,911.000061 
	C714.269958,911.000000 715.781982,911.377441 716.887695,910.872192 
	C718.107666,910.314819 718.954895,908.941467 720.010193,907.204041 
	C719.694702,906.086914 719.379211,904.969727 718.836365,903.265259 
	C717.927429,902.866516 717.018433,902.467712 715.848816,901.393127 
	C712.522461,900.112854 709.168396,898.899658 705.874390,897.541016 
	C689.669312,890.856812 673.670105,883.789368 659.406189,873.343628 
	C657.778198,872.151428 655.509094,871.834595 653.362122,871.089661 
	C653.362122,871.089661 653.176331,871.072144 653.083069,870.346802 
	C650.052551,867.843018 647.021973,865.339233 643.851929,862.182495 
	C643.182800,861.245789 642.621277,860.204224 641.827332,859.389099 
	C635.684998,853.082703 628.997009,847.232544 623.421570,840.463928 
	C608.719421,822.615479 596.999939,803.123962 588.931213,781.154480 
	C584.241211,768.384399 581.559509,755.252197 578.361023,742.250977 
	C576.031860,732.783447 576.370789,722.594177 576.114441,712.711304 
	C575.997192,708.190735 577.797852,703.640747 577.869446,699.090576 
	C578.002563,690.630432 578.002991,682.298645 580.638000,674.045715 
	C584.328430,662.487305 586.688232,650.474487 590.828613,639.096863 
	C596.103394,624.601807 603.630249,611.126892 612.634399,598.515991 
	C625.601257,580.355042 640.857788,564.277649 659.433105,552.057861 
	C672.467712,543.483032 686.871826,536.945374 700.864014,529.894409 
	C705.937073,527.338013 711.512573,525.661865 717.003357,524.088623 
	C721.239685,522.874817 725.754456,522.666992 730.053223,521.629700 
	C740.310242,519.154785 750.438538,516.428772 761.214111,516.881165 
	C772.190857,517.342102 783.202087,516.969360 794.198059,517.000061 
	C795.852112,517.004639 797.557373,516.999146 799.150269,517.374451 
	C805.227051,518.806091 811.283875,520.330139 817.317810,521.934021 
	C826.651367,524.414978 836.456726,525.880371 845.165405,529.779114 
	C858.979980,535.963745 872.739624,542.776550 885.290161,551.166931 
	C907.041504,565.708313 925.358276,584.186646 938.686401,606.876038 
	C945.838623,619.051758 951.841614,631.973816 957.464783,644.948486 
	C960.620056,652.228638 961.864990,660.326477 964.175232,667.994263 
	C964.528809,669.167725 965.989746,670.007507 967.311523,671.559387 
	C968.670471,671.360840 970.029419,671.162354 972.136230,670.858826 
	C972.761902,668.499451 973.933105,666.140564 973.934875,663.780701 
	C974.023132,548.000732 974.011047,432.220673 974.008728,316.440613 
	C974.008728,315.107971 974.342773,313.649750 973.918030,312.466553 
	C972.712585,309.108734 973.278503,304.769958 969.025269,302.226654 
	C967.887024,296.865356 962.219910,291.560608 956.805603,290.311310 
	C955.535461,289.864075 954.265259,289.416840 952.780701,288.310974 
M975.967407,829.566162 
	C971.917725,825.159851 967.837769,820.780945 963.824097,816.342041 
	C951.444397,802.650940 939.070923,788.953979 926.771362,775.191101 
	C926.006897,774.335754 925.291138,772.706055 925.583740,771.753296 
	C927.840637,764.404053 930.741577,757.234314 932.674316,749.808899 
	C934.577881,742.495911 936.493408,734.984253 936.786926,727.496399 
	C937.389282,712.129578 937.845520,696.668274 933.964111,681.516296 
	C932.377563,675.322937 931.773499,668.782715 929.469727,662.890076 
	C925.764038,653.411438 921.951294,643.740234 916.490173,635.238281 
	C908.637573,623.013184 899.876953,611.235657 890.377014,600.240845 
	C880.001831,588.233093 866.982666,578.990845 853.012817,571.508606 
	C839.979797,564.528198 826.542908,558.294250 811.707581,555.762024 
	C804.558533,554.541626 797.582947,551.677612 790.426453,551.242737 
	C766.700928,549.800842 743.441345,551.794678 720.851135,560.549683 
	C708.125000,565.481750 695.939880,571.099976 684.671387,578.664551 
	C671.920166,587.224548 660.244568,597.091064 650.520569,609.064941 
	C640.556946,621.333862 631.900208,634.420410 625.711487,649.067383 
	C621.860901,658.180725 617.993103,667.202515 616.587952,677.151184 
	C615.462524,685.119507 612.563782,692.937439 612.229248,700.896790 
	C611.520569,717.760376 611.076294,734.726746 616.885681,751.095093 
	C619.937134,759.692688 621.717407,768.796326 625.316162,777.134277 
	C635.183838,799.996887 649.474060,819.818970 668.548584,835.992188 
	C686.492004,851.206421 706.322083,863.022034 729.247375,869.161499 
	C733.029175,870.174255 736.700500,871.660767 740.521484,872.451965 
	C747.147339,873.823914 753.821106,875.573914 760.526428,875.833313 
	C777.931335,876.506592 795.182373,876.050659 812.327393,871.337769 
	C823.163940,868.358948 833.500854,864.614807 843.657959,860.015076 
	C847.417969,858.312378 851.106628,855.125061 855.687988,858.138855 
	C867.202087,865.713379 878.726868,873.271790 890.248230,880.835327 
	C907.873230,892.405823 925.484558,903.997192 943.128540,915.538574 
	C960.216919,926.716614 977.321411,937.870300 994.454163,948.980286 
	C1003.222900,954.666565 1011.872742,960.575378 1020.926697,965.773132 
	C1033.780640,973.152344 1046.417603,967.210449 1053.234863,956.648743 
	C1061.705200,943.526184 1060.414185,926.058105 1050.227783,913.919922 
	C1035.915771,896.865479 1020.904907,880.396790 1006.167725,863.699768 
	C996.270935,852.487000 986.330627,841.312561 975.967407,829.566162 
z"/>
<path fill="#182F97" opacity="1.000000" stroke="none" 
	d="
M976.188599,829.843567 
	C986.330627,841.312561 996.270935,852.487000 1006.167725,863.699768 
	C1020.904907,880.396790 1035.915771,896.865479 1050.227783,913.919922 
	C1060.414185,926.058105 1061.705200,943.526184 1053.234863,956.648743 
	C1046.417603,967.210449 1033.780640,973.152344 1020.926697,965.773132 
	C1011.872742,960.575378 1003.222900,954.666565 994.454163,948.980286 
	C977.321411,937.870300 960.216919,926.716614 943.128540,915.538574 
	C925.484558,903.997192 907.873230,892.405823 890.248230,880.835327 
	C878.726868,873.271790 867.202087,865.713379 855.687988,858.138855 
	C851.106628,855.125061 847.417969,858.312378 843.657959,860.015076 
	C833.500854,864.614807 823.163940,868.358948 812.327393,871.337769 
	C795.182373,876.050659 777.931335,876.506592 760.526428,875.833313 
	C753.821106,875.573914 747.147339,873.823914 740.521484,872.451965 
	C736.700500,871.660767 733.029175,870.174255 729.247375,869.161499 
	C706.322083,863.022034 686.492004,851.206421 668.548584,835.992188 
	C649.474060,819.818970 635.183838,799.996887 625.316162,777.134277 
	C621.717407,768.796326 619.937134,759.692688 616.885681,751.095093 
	C611.076294,734.726746 611.520569,717.760376 612.229248,700.896790 
	C612.563782,692.937439 615.462524,685.119507 616.587952,677.151184 
	C617.993103,667.202515 621.860901,658.180725 625.711487,649.067383 
	C631.900208,634.420410 640.556946,621.333862 650.520569,609.064941 
	C660.244568,597.091064 671.920166,587.224548 684.671387,578.664551 
	C695.939880,571.099976 708.125000,565.481750 720.851135,560.549683 
	C743.441345,551.794678 766.700928,549.800842 790.426453,551.242737 
	C797.582947,551.677612 804.558533,554.541626 811.707581,555.762024 
	C826.542908,558.294250 839.979797,564.528198 853.012817,571.508606 
	C866.982666,578.990845 880.001831,588.233093 890.377014,600.240845 
	C899.876953,611.235657 908.637573,623.013184 916.490173,635.238281 
	C921.951294,643.740234 925.764038,653.411438 929.469727,662.890076 
	C931.773499,668.782715 932.377563,675.322937 933.964111,681.516296 
	C937.845520,696.668274 937.389282,712.129578 936.786926,727.496399 
	C936.493408,734.984253 934.577881,742.495911 932.674316,749.808899 
	C930.741577,757.234314 927.840637,764.404053 925.583740,771.753296 
	C925.291138,772.706055 926.006897,774.335754 926.771362,775.191101 
	C939.070923,788.953979 951.444397,802.650940 963.824097,816.342041 
	C967.837769,820.780945 971.917725,825.159851 976.188599,829.843567 
M939.948486,909.066528 
	C947.597778,914.146912 955.247070,919.227234 963.104248,924.893311 
	C963.824951,925.204468 964.545715,925.515564 965.887329,926.086609 
	C968.916260,928.070862 971.945251,930.055054 975.106628,932.712280 
	C976.478210,933.428284 977.849731,934.144226 979.830200,935.148804 
	C982.861572,937.160583 985.892944,939.172363 989.090759,941.802979 
	C989.808289,942.145996 990.525757,942.489014 991.905090,943.008362 
	C995.564697,945.451172 999.224365,947.893982 1003.075745,950.918762 
	C1003.776245,951.241150 1004.476685,951.563538 1005.811462,952.106384 
	C1009.492249,954.571899 1013.172974,957.037415 1017.057434,960.059570 
	C1017.748779,960.348999 1018.440125,960.638367 1019.708496,961.150208 
	C1020.433777,961.540100 1021.158997,961.929993 1022.132874,962.970581 
	C1028.028076,966.314575 1034.002930,967.559814 1040.676514,963.184570 
	C1042.066406,962.429016 1043.456177,961.673462 1045.499634,960.882751 
	C1045.994995,960.245178 1046.490356,959.607605 1047.336548,958.397217 
	C1049.387817,954.646606 1051.439087,950.895996 1054.081421,946.765503 
	C1056.272461,941.047302 1056.578613,935.391846 1053.268066,929.255615 
	C1053.222778,928.830505 1053.177490,928.405457 1053.502075,927.493591 
	C1052.511230,925.277466 1051.520386,923.061279 1050.136353,920.450012 
	C1049.983398,920.114319 1049.830444,919.778625 1049.686646,918.856934 
	C1049.419434,918.590210 1049.152222,918.323486 1048.548950,917.628662 
	C1048.343750,917.125610 1048.138428,916.622559 1047.942139,915.510986 
	C1047.395874,914.970581 1046.849609,914.430237 1045.822266,913.407959 
	C1044.620239,912.025330 1043.436768,910.625854 1042.213379,909.262329 
	C1002.837952,865.379700 963.479919,821.481384 924.022217,777.672791 
	C921.852478,775.263794 921.193542,773.376831 922.371582,770.198364 
	C938.623413,726.348450 936.828674,683.249634 915.511658,641.538574 
	C876.853149,565.895264 786.379089,534.229004 709.443970,568.998169 
	C626.853516,606.323242 592.420532,704.438904 633.471741,785.478333 
	C673.265198,864.034790 771.018555,894.994873 848.554688,853.498657 
	C851.309326,852.024475 853.138184,851.808777 855.671265,853.780151 
	C859.203796,856.529358 863.111389,858.797302 866.863831,861.262939 
	C890.208435,876.602844 913.554504,891.940369 937.088013,907.895874 
	C937.843567,908.183289 938.599060,908.470703 939.948486,909.066528 
z"/>
<path fill="#0B2793" opacity="1.000000" stroke="none" 
	d="
M719.964478,907.923462 
	C718.954895,908.941467 718.107666,910.314819 716.887695,910.872192 
	C715.781982,911.377441 714.269958,911.000000 712.937073,911.000061 
	C559.817261,911.000793 406.697357,910.943665 253.577713,911.098633 
	C240.113586,911.112244 227.961884,901.222351 223.731262,890.814148 
	C222.898758,888.765991 223.021454,886.252869 223.021057,883.954102 
	C222.991730,713.839478 222.994385,543.724854 222.994507,373.610199 
	C222.994507,353.449707 222.992920,333.289185 222.995056,313.128693 
	C222.996063,303.623444 231.066650,292.202515 240.083572,288.982727 
	C242.090836,288.265991 244.135849,287.654877 246.689575,287.260315 
	C247.480347,288.066376 247.745056,288.607300 247.791428,289.326782 
	C246.648193,290.091614 245.723297,290.677826 244.507767,291.397644 
	C243.797073,291.590790 243.376999,291.650330 242.718369,291.525116 
	C240.617722,292.472870 238.755646,293.605438 236.727631,294.965637 
	C236.100189,295.504456 235.638657,295.815613 234.830902,296.097473 
	C233.671036,297.068970 232.857376,298.069763 231.865753,299.360596 
	C230.182816,302.365509 228.677841,305.080383 226.887177,307.940094 
	C226.528076,308.866791 226.454697,309.648682 226.398193,310.811371 
	C226.294617,312.456268 226.174164,313.720306 225.787140,315.302673 
	C225.388702,317.270325 225.141556,318.919708 225.141388,320.569092 
	C225.123871,506.301514 225.122192,692.033936 225.163498,877.766357 
	C225.163879,879.515930 225.750458,881.265442 226.142487,883.364014 
	C226.278549,884.664307 226.335480,885.615540 226.240082,886.908203 
	C226.703354,888.509521 227.318954,889.769226 228.094940,891.338135 
	C230.791382,894.887817 233.327438,898.128296 235.916992,901.672729 
	C236.651505,902.315063 237.332565,902.653503 238.332397,903.075256 
	C239.030701,903.376770 239.410233,903.594910 239.912140,904.127563 
	C241.482437,904.860474 242.930344,905.278992 244.656250,905.683472 
	C245.285553,905.779602 245.636856,905.889954 246.282867,906.305298 
	C248.546509,906.809998 250.515427,907.184143 252.484406,907.184509 
	C402.534546,907.212158 552.584656,907.213013 702.634827,907.178894 
	C704.402649,907.178467 706.170349,906.697266 708.295715,906.372681 
	C710.091553,906.458679 711.529785,906.612549 713.207764,907.090698 
	C715.619751,907.584534 717.792114,907.753967 719.964478,907.923462 
z"/>
<path fill="#182F97" opacity="1.000000" stroke="none" 
	d="
M966.938599,671.001648 
	C965.989746,670.007507 964.528809,669.167725 964.175232,667.994263 
	C961.864990,660.326477 960.620056,652.228638 957.464783,644.948486 
	C951.841614,631.973816 945.838623,619.051758 938.686401,606.876038 
	C925.358276,584.186646 907.041504,565.708313 885.290161,551.166931 
	C872.739624,542.776550 858.979980,535.963745 845.165405,529.779114 
	C836.456726,525.880371 826.651367,524.414978 817.317810,521.934021 
	C811.283875,520.330139 805.227051,518.806091 799.150269,517.374451 
	C797.557373,516.999146 795.852112,517.004639 794.198059,517.000061 
	C783.202087,516.969360 772.190857,517.342102 761.214111,516.881165 
	C750.438538,516.428772 740.310242,519.154785 730.053223,521.629700 
	C725.754456,522.666992 721.239685,522.874817 717.003357,524.088623 
	C711.512573,525.661865 705.937073,527.338013 700.864014,529.894409 
	C686.871826,536.945374 672.467712,543.483032 659.433105,552.057861 
	C640.857788,564.277649 625.601257,580.355042 612.634399,598.515991 
	C603.630249,611.126892 596.103394,624.601807 590.828613,639.096863 
	C586.688232,650.474487 584.328430,662.487305 580.638000,674.045715 
	C578.002991,682.298645 578.002563,690.630432 577.869446,699.090576 
	C577.797852,703.640747 575.997192,708.190735 576.114441,712.711304 
	C576.370789,722.594177 576.031860,732.783447 578.361023,742.250977 
	C581.559509,755.252197 584.241211,768.384399 588.931213,781.154480 
	C596.999939,803.123962 608.719421,822.615479 623.421570,840.463928 
	C628.997009,847.232544 635.684998,853.082703 641.827332,859.389099 
	C642.621277,860.204224 643.182800,861.245789 643.899841,862.805420 
	C643.939819,863.625061 643.931885,863.821716 643.647156,863.844360 
	C641.883118,862.793213 640.395874,861.916077 638.590210,860.941650 
	C633.831482,856.272339 629.391174,851.700317 624.924561,846.790344 
	C623.675110,845.269287 622.451904,844.086243 621.160889,842.905701 
	C621.093079,842.908264 621.098450,842.772644 621.023560,842.493103 
	C620.531555,841.843140 620.114380,841.472778 619.445984,840.991394 
	C618.780396,840.299744 618.365967,839.719116 617.933350,838.819519 
	C617.088928,837.652344 616.262695,836.804138 615.225464,835.814697 
	C614.988586,835.506165 614.962830,835.338806 614.925781,834.847839 
	C614.086426,833.636353 613.258423,832.748535 612.285034,831.828247 
	C612.139771,831.795715 612.159546,831.498596 612.085693,831.255310 
	C611.644409,830.682983 611.277100,830.353943 610.642700,829.842651 
	C609.941528,828.924561 609.507385,828.188599 609.064819,827.182922 
	C608.547974,826.262268 608.039673,825.611389 607.302002,824.824585 
	C607.027771,824.516541 606.982971,824.344543 606.914978,823.808472 
	C604.773743,820.280518 602.655701,817.116516 600.313110,813.799316 
	C600.046265,813.469788 600.003967,813.293579 599.940308,812.766846 
	C598.920654,810.932922 597.922363,809.449646 596.817688,807.915527 
	C596.711243,807.864624 596.782349,807.639648 596.805664,807.239868 
	C592.281494,795.801025 586.952271,785.010803 583.343811,773.672913 
	C575.002808,747.465332 572.057495,720.572998 574.903809,693.059509 
	C576.777954,674.942810 580.484619,657.336548 587.311157,640.449524 
	C590.663391,632.157227 594.378418,624.011475 597.977417,615.464478 
	C598.288635,614.771790 598.551697,614.414062 599.094849,613.933960 
	C600.196960,612.143433 601.018982,610.475342 601.852295,608.845032 
	C601.863586,608.882751 601.785278,608.891235 602.108398,608.771851 
	C604.604248,605.074280 606.776917,601.496216 608.966675,597.948730 
	C608.983643,597.979370 608.914429,597.968811 609.148010,597.830322 
	C609.561707,597.384155 609.741821,597.076355 609.974121,596.435913 
	C610.885925,595.084167 611.745544,594.065247 612.889648,592.953308 
	C613.778442,591.896240 614.382812,590.932129 615.027954,589.661133 
	C615.492920,588.936829 615.917175,588.519409 616.619751,588.009399 
	C617.263123,587.273315 617.628113,586.630005 617.996948,585.993286 
	C618.000793,586.000000 617.986145,585.996033 618.206421,585.873657 
	C618.610657,585.475464 618.794617,585.199585 619.076843,584.615723 
	C620.201843,583.214050 621.228516,582.120483 622.568604,580.958008 
	C623.583740,579.912292 624.285583,578.935486 625.110229,577.648804 
	C630.225952,572.582703 635.218811,567.826416 640.476379,563.016479 
	C641.172913,562.434326 641.604736,561.905823 642.199951,561.098755 
	C643.213806,560.203491 644.064148,559.586792 645.231079,558.947876 
	C646.375305,558.084717 647.202942,557.243713 648.170593,556.136719 
	C648.799988,555.550537 649.289368,555.230286 650.133057,554.895020 
	C652.669983,553.114014 654.852539,551.347961 657.221558,549.352051 
	C657.599915,549.075867 657.791809,549.029602 658.264526,548.959106 
	C659.043518,548.431824 659.541504,547.928772 660.212280,547.223633 
	C660.561340,547.002197 660.737488,546.982788 661.202881,546.947388 
	C662.006836,546.425598 662.521606,545.919861 663.215576,545.164917 
	C664.123352,544.562988 664.851929,544.210205 665.872803,543.773254 
	C666.453613,543.411560 666.742310,543.133972 667.238037,542.608215 
	C668.958984,541.567993 670.472717,540.775879 672.346252,539.954468 
	C673.771301,539.471619 674.881714,539.101379 675.895142,538.552246 
	C704.338440,523.140442 734.545410,514.305908 767.058105,513.938171 
	C768.391724,513.923096 769.715942,513.077576 771.418091,512.465088 
	C772.846619,512.413452 773.901611,512.515625 775.168823,512.919434 
	C783.547424,513.627319 791.713684,514.033630 800.234497,514.348145 
	C801.043701,514.408813 801.498535,514.561279 802.151855,514.991211 
	C803.118042,515.530701 803.866760,515.906982 804.656250,516.038025 
	C823.894104,519.230713 842.403198,524.711975 859.917603,533.405701 
	C865.234985,536.045105 870.661682,538.464355 876.379089,541.068298 
	C877.462219,541.706360 878.204529,542.260620 879.057129,543.088501 
	C880.161621,543.885193 881.155762,544.408203 882.407104,544.950928 
	C882.767273,545.108093 882.870361,545.245667 883.067505,545.661621 
	C883.819336,546.275818 884.477295,546.611572 885.388977,546.966675 
	C885.748596,547.118713 885.854431,547.251404 886.055054,547.657898 
	C886.793457,548.276062 887.437134,548.620361 888.353271,549.024536 
	C888.740417,549.230774 888.855164,549.377136 889.061523,549.824463 
	C891.512268,551.722107 893.871399,553.318787 896.518616,554.989380 
	C897.198120,555.497864 897.589478,555.932556 898.062866,556.637329 
	C898.758972,557.270203 899.373108,557.632874 900.302856,558.098206 
	C901.735840,559.259216 902.853271,560.317627 904.046021,561.680420 
	C905.097046,562.651672 906.072754,563.318542 907.359375,564.103882 
	C910.477783,567.059814 913.285339,569.897217 916.218262,572.994019 
	C916.653809,573.470703 916.963806,573.688110 917.563232,574.038086 
	C919.234253,575.777527 920.615845,577.384399 922.031860,579.304932 
	C922.926270,580.424255 923.786316,581.229797 924.968384,582.214966 
	C926.164856,583.562256 927.039368,584.730042 927.934448,586.146790 
	C928.493530,586.940857 929.032043,587.485901 929.782227,588.136108 
	C929.993835,588.241150 930.108765,588.699402 930.204712,588.962646 
	C930.580505,589.465210 930.860413,589.704590 931.103271,589.940613 
	C931.066223,589.937256 931.089905,589.866821 931.098022,590.184814 
	C931.924133,591.348450 932.742188,592.194092 933.809692,593.203430 
	C934.396484,593.856995 934.733765,594.346802 935.101074,595.107788 
	C935.408508,595.592285 935.685791,595.805725 936.147095,596.216797 
	C936.585205,596.888062 936.839417,597.361694 937.129395,598.110596 
	C937.459900,598.588806 937.754578,598.791687 938.235596,599.183228 
	C938.657227,599.843201 938.892395,600.314514 939.154358,601.067139 
	C939.480225,601.552063 939.779419,601.755676 940.307983,602.160156 
	C941.138672,603.420105 941.739990,604.479126 942.339722,605.832275 
	C942.609314,606.391052 942.880493,606.655762 943.333252,607.104614 
	C943.745667,607.748291 943.976501,608.207825 944.241028,608.957275 
	C944.569031,609.481995 944.863342,609.716919 945.358826,610.220520 
	C946.830688,612.833130 948.101440,615.177063 949.359619,617.814331 
	C949.604187,618.385376 949.861450,618.663208 950.314941,619.209839 
	C951.347656,621.307373 952.184021,623.135986 952.967285,625.246704 
	C953.378174,626.078186 953.842163,626.627502 954.502747,627.463989 
	C955.229370,629.030518 955.759399,630.309998 956.261108,631.878479 
	C956.479065,632.448364 956.725281,632.729248 957.134155,633.281982 
	C957.643860,634.550415 957.991028,635.547058 958.320190,636.844177 
	C958.569824,637.425598 958.837402,637.706482 959.275208,638.306885 
	C960.729431,642.277100 962.013489,645.927795 963.199219,649.916199 
	C963.416138,650.845276 963.731201,651.436646 964.157837,652.285889 
	C964.269958,652.731201 964.270447,652.918579 964.117065,653.126465 
	C963.963257,653.146912 963.969727,653.548096 963.969727,653.548096 
	C963.969727,653.548096 964.377991,653.583313 964.413757,653.614014 
	C964.449524,653.644714 964.426086,653.736084 964.255249,653.995483 
	C964.753113,655.849426 965.421814,657.443848 966.211792,659.362610 
	C966.405945,660.602051 966.478760,661.517212 966.414062,662.839294 
	C966.535645,665.465210 966.794800,667.684204 967.025513,670.177856 
	C966.977478,670.635498 966.958069,670.818604 966.938599,671.001648 
z"/>
<path fill="#06148A" opacity="1.000000" stroke="none" 
	d="
M248.009750,289.148193 
	C247.745056,288.607300 247.480347,288.066376 247.078278,287.255981 
	C480.667358,286.981262 714.393860,286.976044 948.455688,287.246429 
	C948.525452,288.060608 948.259888,288.599152 947.525757,289.144684 
	C714.041382,289.150513 481.025574,289.149353 248.009750,289.148193 
z"/>
<path fill="#06148A" opacity="1.000000" stroke="none" 
	d="
M969.021484,302.981506 
	C973.278503,304.769958 972.712585,309.108734 973.918030,312.466553 
	C974.342773,313.649750 974.008728,315.107971 974.008728,316.440613 
	C974.011047,432.220673 974.023132,548.000732 973.934875,663.780701 
	C973.933105,666.140564 972.761902,668.499451 971.678833,670.890076 
	C971.221497,670.921326 971.071472,670.991150 971.139648,670.526794 
	C971.181885,663.908447 971.133667,657.754517 971.133484,651.600525 
	C971.130188,540.414429 971.139160,429.228363 971.083740,318.042328 
	C971.082703,316.011780 970.329651,313.981628 969.831604,311.694855 
	C969.735718,311.255890 969.735718,311.073334 969.967773,310.901031 
	C970.448059,310.724579 970.660339,310.503510 970.710815,309.993774 
	C970.272095,309.539429 969.959351,309.339264 969.630920,309.235931 
	C969.615234,309.332794 969.421021,309.304688 969.597595,308.948730 
	C969.349976,306.860321 968.925720,305.127838 968.631592,303.291992 
	C968.761597,303.188599 969.021484,302.981506 969.021484,302.981506 
z"/>
<path fill="#06148A" opacity="1.000000" stroke="none" 
	d="
M653.537231,871.111877 
	C655.509094,871.834595 657.778198,872.151428 659.406189,873.343628 
	C673.670105,883.789368 689.669312,890.856812 705.874390,897.541016 
	C709.168396,898.899658 712.522461,900.112854 715.769653,901.824768 
	C715.426147,902.407471 715.181335,902.585449 714.623352,902.856201 
	C714.096802,903.038757 713.903076,903.155334 713.421448,903.265930 
	C712.764404,903.159058 712.395264,903.058167 711.814514,902.678772 
	C709.419861,901.573975 707.236755,900.747742 704.841431,899.728516 
	C704.096252,899.349426 703.563293,899.163208 702.659790,898.921448 
	C701.805359,898.953613 701.321350,899.041321 700.498535,899.063599 
	C699.519409,898.746033 698.879150,898.493958 698.126038,897.955200 
	C697.274414,897.493042 696.535706,897.317566 695.501709,897.071777 
	C694.845093,896.822266 694.483826,896.643188 693.971985,896.182495 
	C692.845215,895.621338 691.869019,895.341858 690.597412,894.966858 
	C689.950012,894.656860 689.598022,894.442383 689.223267,893.989746 
	C688.818542,893.473877 688.436646,893.196167 687.958496,892.798584 
	C687.603821,892.473450 687.320557,892.430298 686.883545,892.730286 
	C686.754578,892.911194 686.909790,893.327637 686.559875,893.211609 
	C682.384216,890.957336 678.558472,888.819092 674.734131,886.498230 
	C674.481567,886.317017 674.227600,886.318420 673.598083,886.279602 
	C672.189575,885.530945 671.156555,884.822510 670.032104,883.820923 
	C667.915283,882.370911 665.889832,881.214172 663.525208,880.010132 
	C661.156250,878.471497 659.126526,876.980103 657.017212,875.206665 
	C656.267151,874.620483 655.596741,874.316467 654.668762,873.942505 
	C654.289368,873.742920 654.167419,873.613403 654.089966,873.176941 
	C653.935364,872.283997 653.736328,871.697937 653.537231,871.111877 
z"/>
<path fill="#06148A" opacity="1.000000" stroke="none" 
	d="
M957.013855,290.983246 
	C962.219910,291.560608 967.887024,296.865356 969.023376,302.604065 
	C969.021484,302.981506 968.761597,303.188599 968.422852,303.047180 
	C967.018127,301.954681 965.952087,301.003632 964.704712,299.902649 
	C964.308289,299.517273 964.149719,299.248535 964.038696,298.604248 
	C961.554626,296.016205 959.079285,293.770447 956.706482,291.389343 
	C956.808960,291.253967 957.013855,290.983246 957.013855,290.983246 
z"/>
<path fill="#06148A" opacity="1.000000" stroke="none" 
	d="
M643.923950,864.018311 
	C643.931885,863.821716 643.939819,863.625061 643.969604,863.131958 
	C647.021973,865.339233 650.052551,867.843018 652.771973,870.662598 
	C651.988037,870.980408 651.515320,870.982422 650.756714,870.882690 
	C650.346130,870.621948 650.221375,870.462769 650.046143,870.055298 
	C649.438965,869.494324 648.882141,869.181641 648.001465,868.768799 
	C646.486938,867.636169 645.296387,866.603821 644.127258,865.308960 
	C644.073792,864.703796 643.998840,864.361023 643.923950,864.018311 
z"/>
<path fill="#4D69B4" opacity="1.000000" stroke="none" 
	d="
M713.709290,903.271912 
	C713.903076,903.155334 714.096802,903.038757 714.958740,902.974121 
	C716.772522,903.301575 717.918152,903.577087 719.063721,903.852600 
	C719.379211,904.969727 719.694702,906.086914 719.987305,907.563721 
	C717.792114,907.753967 715.619751,907.584534 713.407166,906.804321 
	C713.481018,905.219727 713.595154,904.245789 713.709290,903.271912 
z"/>
<path fill="#0B2793" opacity="1.000000" stroke="none" 
	d="
M947.994385,289.137695 
	C948.259888,288.599152 948.525452,288.060608 948.928345,287.253326 
	C950.304077,287.426727 951.542358,287.868835 952.896362,288.922333 
	C953.027832,289.908783 953.043579,290.283905 952.722290,290.631287 
	C950.921631,290.114960 949.458008,289.626343 947.994385,289.137695 
z"/>
<path fill="#1E41A1" opacity="1.000000" stroke="none" 
	d="
M967.125061,671.280518 
	C966.958069,670.818604 966.977478,670.635498 967.358398,670.278442 
	C968.837036,670.400024 969.954285,670.695618 971.071472,670.991211 
	C971.071472,670.991150 971.221497,670.921326 971.304932,670.942627 
	C970.029419,671.162354 968.670471,671.360840 967.125061,671.280518 
z"/>
<path fill="#06148A" opacity="1.000000" stroke="none" 
	d="
M953.059326,290.658997 
	C953.043579,290.283905 953.027832,289.908783 953.003540,289.251648 
	C954.265259,289.416840 955.535461,289.864075 956.909729,290.647278 
	C957.013855,290.983246 956.808960,291.253967 956.359314,291.293823 
	C954.959595,291.108765 954.009460,290.883881 953.059326,290.658997 
z"/>
<path fill="#1E41A1" opacity="1.000000" stroke="none" 
	d="
M651.042542,870.984375 
	C651.515320,870.982422 651.988037,870.980408 652.818604,871.025269 
	C653.176331,871.072144 653.362122,871.089661 653.449707,871.100769 
	C653.736328,871.697937 653.935364,872.283997 653.798584,873.118042 
	C652.656067,872.572205 651.849304,871.778320 651.042542,870.984375 
z"/>
<path fill="#1E41A1" opacity="1.000000" stroke="none" 
	d="
M718.950073,903.558960 
	C717.918152,903.577087 716.772522,903.301575 715.291504,902.908203 
	C715.181335,902.585449 715.426147,902.407471 715.900024,902.162720 
	C717.018433,902.467712 717.927429,902.866516 718.950073,903.558960 
z"/>
<path fill="#FAFBFD" opacity="1.000000" stroke="none" 
	d="
M974.974182,932.039307 
	C971.945251,930.055054 968.916260,928.070862 965.501099,925.648682 
	C964.375366,924.909729 963.635864,924.608704 962.896362,924.307617 
	C955.247070,919.227234 947.597778,914.146912 939.540894,908.621338 
	C938.388916,907.876953 937.644470,907.577820 936.900085,907.278687 
	C913.554504,891.940369 890.208435,876.602844 866.863831,861.262939 
	C863.111389,858.797302 859.203796,856.529358 855.671265,853.780151 
	C853.138184,851.808777 851.309326,852.024475 848.554688,853.498657 
	C771.018555,894.994873 673.265198,864.034790 633.471741,785.478333 
	C592.420532,704.438904 626.853516,606.323242 709.443970,568.998169 
	C786.379089,534.229004 876.853149,565.895264 915.511658,641.538574 
	C936.828674,683.249634 938.623413,726.348450 922.371582,770.198364 
	C921.193542,773.376831 921.852478,775.263794 924.022217,777.672791 
	C963.479919,821.481384 1002.837952,865.379700 1042.213379,909.262329 
	C1043.436768,910.625854 1044.620239,912.025330 1046.061768,913.956299 
	C1046.845215,915.042908 1047.389282,915.581238 1047.933228,916.119507 
	C1048.138428,916.622559 1048.343750,917.125610 1048.689209,918.144287 
	C1049.112183,918.920959 1049.394897,919.181946 1049.677490,919.442932 
	C1049.830444,919.778625 1049.983398,920.114319 1050.297607,921.006348 
	C1051.349976,923.701904 1052.241089,925.841125 1053.132202,927.980347 
	C1053.177490,928.405457 1053.222778,928.830505 1053.280029,929.981689 
	C1053.358276,936.186951 1053.424438,941.666138 1053.490479,947.145386 
	C1051.439087,950.895996 1049.387817,954.646606 1046.846802,958.722046 
	C1045.853394,959.670593 1045.349731,960.294312 1044.846069,960.917969 
	C1043.456177,961.673462 1042.066406,962.429016 1040.009399,963.361389 
	C1033.522949,963.132141 1027.703613,962.726013 1021.884216,962.319824 
	C1021.158997,961.929993 1020.433777,961.540100 1019.350830,960.742065 
	C1018.280029,960.056885 1017.566895,959.779907 1016.853760,959.502930 
	C1013.172974,957.037415 1009.492249,954.571899 1005.420288,951.694214 
	C1004.314087,950.966919 1003.599060,950.651855 1002.883972,950.336792 
	C999.224365,947.893982 995.564697,945.451172 991.479858,942.620850 
	C990.344543,941.883606 989.634460,941.533936 988.924316,941.184204 
	C985.892944,939.172363 982.861572,937.160583 979.420166,934.690430 
	C977.664856,933.501221 976.319519,932.770264 974.974182,932.039307 
M663.387573,765.273132 
	C663.843384,766.344299 664.236206,767.447632 664.763855,768.482117 
	C697.177856,832.029297 774.140747,854.834778 835.965820,819.221313 
	C898.200806,783.371521 915.608765,698.556030 872.453552,641.443909 
	C837.605774,595.325806 776.908081,578.927490 725.487183,601.738831 
	C662.558533,629.655212 635.199341,700.983276 663.387573,765.273132 
z"/>
<path fill="#4D69B4" opacity="1.000000" stroke="none" 
	d="
M1053.785889,946.955444 
	C1053.424438,941.666138 1053.358276,936.186951 1053.405029,930.278137 
	C1056.578613,935.391846 1056.272461,941.047302 1053.785889,946.955444 
z"/>
<path fill="#4D69B4" opacity="1.000000" stroke="none" 
	d="
M1022.008545,962.645264 
	C1027.703613,962.726013 1033.522949,963.132141 1039.757690,963.596436 
	C1034.002930,967.559814 1028.028076,966.314575 1022.008545,962.645264 
z"/>
<path fill="#4D69B4" opacity="1.000000" stroke="none" 
	d="
M1053.317139,927.736938 
	C1052.241089,925.841125 1051.349976,923.701904 1050.494141,921.203918 
	C1051.520386,923.061279 1052.511230,925.277466 1053.317139,927.736938 
z"/>
<path fill="#4D69B4" opacity="1.000000" stroke="none" 
	d="
M975.040405,932.375793 
	C976.319519,932.770264 977.664856,933.501221 979.115723,934.546143 
	C977.849731,934.144226 976.478210,933.428284 975.040405,932.375793 
z"/>
<path fill="#4D69B4" opacity="1.000000" stroke="none" 
	d="
M936.994019,907.587280 
	C937.644470,907.577820 938.388916,907.876953 939.243958,908.467102 
	C938.599060,908.470703 937.843567,908.183289 936.994019,907.587280 
z"/>
<path fill="#4D69B4" opacity="1.000000" stroke="none" 
	d="
M1047.937744,915.815247 
	C1047.389282,915.581238 1046.845215,915.042908 1046.302246,914.197266 
	C1046.849609,914.430237 1047.395874,914.970581 1047.937744,915.815247 
z"/>
<path fill="#4D69B4" opacity="1.000000" stroke="none" 
	d="
M1045.172852,960.900391 
	C1045.349731,960.294312 1045.853394,959.670593 1046.671387,959.008484 
	C1046.490356,959.607605 1045.994995,960.245178 1045.172852,960.900391 
z"/>
<path fill="#4D69B4" opacity="1.000000" stroke="none" 
	d="
M963.000305,924.600464 
	C963.635864,924.608704 964.375366,924.909729 965.190674,925.518738 
	C964.545715,925.515564 963.824951,925.204468 963.000305,924.600464 
z"/>
<path fill="#4D69B4" opacity="1.000000" stroke="none" 
	d="
M989.007568,941.493591 
	C989.634460,941.533936 990.344543,941.883606 991.148987,942.532715 
	C990.525757,942.489014 989.808289,942.145996 989.007568,941.493591 
z"/>
<path fill="#4D69B4" opacity="1.000000" stroke="none" 
	d="
M1002.979858,950.627808 
	C1003.599060,950.651855 1004.314087,950.966919 1005.103149,951.583984 
	C1004.476685,951.563538 1003.776245,951.241150 1002.979858,950.627808 
z"/>
<path fill="#4D69B4" opacity="1.000000" stroke="none" 
	d="
M1016.955566,959.781250 
	C1017.566895,959.779907 1018.280029,960.056885 1019.062317,960.630798 
	C1018.440125,960.638367 1017.748779,960.348999 1016.955566,959.781250 
z"/>
<path fill="#4D69B4" opacity="1.000000" stroke="none" 
	d="
M1049.682129,919.149902 
	C1049.394897,919.181946 1049.112183,918.920959 1048.857422,918.358398 
	C1049.152222,918.323486 1049.419434,918.590210 1049.682129,919.149902 
z"/>
<path fill="#FDFEFE" opacity="1.000000" stroke="none" 
	d="
M650.756714,870.882751 
	C651.849304,871.778320 652.656067,872.572205 653.754150,873.424927 
	C654.167419,873.613403 654.289368,873.742920 654.734497,874.230957 
	C655.737427,874.889221 656.417114,875.188965 657.096802,875.488770 
	C659.126526,876.980103 661.156250,878.471497 663.636902,880.317505 
	C666.099731,881.819458 668.111694,882.966736 670.123596,884.114075 
	C671.156555,884.822510 672.189575,885.530945 673.729309,886.493408 
	C674.401611,886.725220 674.567139,886.703003 674.732727,886.680786 
	C678.558472,888.819092 682.384216,890.957336 686.647766,893.489624 
	C687.805725,893.998413 688.525879,894.113098 689.246033,894.227844 
	C689.598022,894.442383 689.950012,894.656860 690.677673,895.292358 
	C692.076416,895.963623 693.099487,896.213867 694.122559,896.464111 
	C694.483826,896.643188 694.845093,896.822266 695.566956,897.389038 
	C696.697937,897.931763 697.468445,898.086792 698.238892,898.241821 
	C698.879150,898.493958 699.519409,898.746033 700.614746,899.389465 
	C704.721924,900.839661 708.374023,901.898499 712.026062,902.957275 
	C712.395264,903.058167 712.764404,903.159058 713.421448,903.265930 
	C713.595154,904.245789 713.481018,905.219727 713.167480,906.479980 
	C711.529785,906.612549 710.091553,906.458679 707.972656,906.129028 
	C704.465393,905.862610 701.638916,905.693176 698.812378,905.692932 
	C550.679382,905.680115 402.546356,905.679810 254.413345,905.694824 
	C251.604935,905.695129 248.796570,905.894043 245.988174,906.000244 
	C245.636856,905.889954 245.285553,905.779602 244.469910,905.413452 
	C242.600296,904.709473 241.195007,904.261292 239.789734,903.813110 
	C239.410233,903.594910 239.030701,903.376770 238.258072,902.784058 
	C237.197830,902.062622 236.530685,901.715698 235.863525,901.368774 
	C233.327438,898.128296 230.791382,894.887817 228.188904,890.990356 
	C227.545792,889.077881 226.969101,887.822327 226.392410,886.566711 
	C226.335480,885.615540 226.278549,884.664307 226.353531,883.012634 
	C226.540970,881.148926 226.645096,879.985718 226.645157,878.822510 
	C226.653809,692.500061 226.656509,506.177582 226.631531,319.855103 
	C226.631317,318.231506 226.254623,316.607941 226.053711,314.984375 
	C226.174164,313.720306 226.294617,312.456268 226.662323,310.646423 
	C226.997330,309.332153 227.085098,308.563721 227.172882,307.795258 
	C228.677841,305.080383 230.182816,302.365509 232.187103,299.326691 
	C233.516663,298.044128 234.346893,297.085449 235.177124,296.126770 
	C235.638657,295.815613 236.100189,295.504456 237.077789,294.956970 
	C239.381546,293.717072 241.169235,292.713470 242.956924,291.709900 
	C243.376999,291.650330 243.797073,291.590790 244.968307,291.542572 
	C248.383713,291.479370 251.047958,291.339691 253.712204,291.339600 
	C481.865295,291.330139 710.018433,291.364960 938.171448,291.215790 
	C947.813599,291.209473 956.678528,292.139038 964.047546,298.946503 
	C964.149719,299.248535 964.308289,299.517273 964.740784,300.265747 
	C966.445862,303.620758 967.933411,306.462738 969.421021,309.304688 
	C969.421021,309.304688 969.615234,309.332794 969.512756,309.546906 
	C969.465027,309.975586 969.519836,310.190125 969.514771,310.559418 
	C969.454956,310.714142 969.735718,310.890808 969.735718,310.890808 
	C969.735718,311.073334 969.735718,311.255890 969.595703,312.035309 
	C969.408875,312.961426 969.320862,313.290680 969.321106,313.619873 
	C969.413025,429.298126 969.512329,544.976379 969.591858,660.654602 
	C969.592773,661.998291 969.337769,663.342102 969.094727,665.751282 
	C967.727356,663.966858 967.139465,663.199646 966.551636,662.432373 
	C966.478760,661.517212 966.405945,660.602051 966.350952,659.108582 
	C965.721313,656.932190 965.073730,655.334106 964.426147,653.736084 
	C964.426086,653.736084 964.449524,653.644714 964.487915,653.472046 
	C964.526367,653.299316 964.270935,653.105957 964.270935,653.105957 
	C964.270447,652.918579 964.269958,652.731201 964.302368,652.083252 
	C963.989380,650.941284 963.643433,650.259888 963.297485,649.578430 
	C962.013489,645.927795 960.729431,642.277100 959.328552,637.995483 
	C958.920532,637.090820 958.629333,636.817261 958.338196,636.543640 
	C957.991028,635.547058 957.643860,634.550415 957.188782,632.984985 
	C956.817017,632.140503 956.553223,631.864990 956.289429,631.589417 
	C955.759399,630.309998 955.229370,629.030518 954.586792,627.183167 
	C953.989563,626.065063 953.504944,625.514832 953.020386,624.964600 
	C952.184021,623.135986 951.347656,621.307373 950.348022,618.908691 
	C949.913818,618.066101 949.642944,617.793579 949.372192,617.521057 
	C948.101440,615.177063 946.830688,612.833130 945.366089,609.912598 
	C944.850586,609.113098 944.528931,608.890259 944.207336,608.667419 
	C943.976501,608.207825 943.745667,607.748291 943.346436,606.803589 
	C942.899109,606.058350 942.620178,605.798279 942.341309,605.538147 
	C941.739990,604.479126 941.138672,603.420105 940.283875,601.877319 
	C939.729431,601.191040 939.428528,600.988403 939.127625,600.785828 
	C938.892395,600.314514 938.657227,599.843201 938.224487,598.893982 
	C937.715881,598.222473 937.404724,598.028870 937.093567,597.835266 
	C936.839417,597.361694 936.585205,596.888062 936.163086,595.925659 
	C935.687134,595.236816 935.379028,595.036743 935.070984,594.836670 
	C934.733765,594.346802 934.396484,593.856995 933.778870,592.907837 
	C932.695618,591.588013 931.892761,590.727417 931.089905,589.866821 
	C931.089905,589.866821 931.066223,589.937256 931.063660,589.643066 
	C930.743652,589.132385 930.426208,588.915894 930.108765,588.699402 
	C930.108765,588.699402 929.993835,588.241150 929.786865,587.884033 
	C929.024536,586.983948 928.469177,586.440918 927.913879,585.897827 
	C927.039368,584.730042 926.164856,583.562256 924.923950,581.918457 
	C923.704163,580.625366 922.850830,579.808289 921.997437,578.991211 
	C920.615845,577.384399 919.234253,575.777527 917.485352,573.742676 
	C916.776367,573.121277 916.434570,572.927917 916.092834,572.734619 
	C913.285339,569.897217 910.477783,567.059814 907.250610,563.821533 
	C905.877502,562.739136 904.924133,562.057617 903.970703,561.376038 
	C902.853271,560.317627 901.735840,559.259216 900.243774,557.818481 
	C899.239746,557.079834 898.610352,556.723511 897.980896,556.367188 
	C897.589478,555.932556 897.198120,555.497864 896.375671,554.688843 
	C893.619690,552.717468 891.294800,551.120483 888.969849,549.523560 
	C888.855164,549.377136 888.740417,549.230774 888.275574,548.745483 
	C887.270325,548.065735 886.615295,547.724915 885.960205,547.384033 
	C885.854431,547.251404 885.748596,547.118713 885.273193,546.705811 
	C884.260193,546.078125 883.616882,545.730652 882.973511,545.383240 
	C882.870361,545.245667 882.767273,545.108093 882.270996,544.692627 
	C880.900757,543.881470 879.923767,543.348206 878.946838,542.814880 
	C878.204529,542.260620 877.462219,541.706360 876.234558,540.773132 
	C862.317627,534.262024 849.198669,527.261536 835.353455,522.278564 
	C824.693420,518.441895 813.120361,517.141785 801.953308,514.713806 
	C801.498535,514.561279 801.043701,514.408813 799.911926,514.142822 
	C791.142151,513.558777 783.049377,513.088318 774.956604,512.617859 
	C773.901611,512.515625 772.846619,512.413452 770.976318,512.289673 
	C744.793274,512.373230 720.375793,517.406128 697.034912,527.181763 
	C688.410889,530.793640 680.320312,535.679138 671.986450,539.983765 
	C670.472717,540.775879 668.958984,541.567993 666.910828,542.621582 
	C666.111145,543.207947 665.845825,543.532654 665.580566,543.857422 
	C664.851929,544.210205 664.123352,544.562988 662.933472,545.174194 
	C661.952759,545.942871 661.433228,546.453125 660.913696,546.963379 
	C660.737488,546.982788 660.561340,547.002197 659.926880,547.207031 
	C658.973633,547.922668 658.478638,548.453003 657.983643,548.983337 
	C657.791809,549.029602 657.599915,549.075867 656.899170,549.356689 
	C654.186401,551.364136 651.982544,553.137085 649.778687,554.910034 
	C649.289368,555.230286 648.799988,555.550537 647.868896,556.143799 
	C646.589600,557.267883 645.752014,558.118958 644.914429,558.970032 
	C644.064148,559.586792 643.213806,560.203491 641.930420,561.125977 
	C641.068848,561.977905 640.640259,562.523987 640.211670,563.070129 
	C635.218811,567.826416 630.225952,572.582703 624.823486,577.755554 
	C623.694336,579.123718 622.974792,580.075317 622.255249,581.026917 
	C621.228516,582.120483 620.201843,583.214050 618.809265,584.680664 
	C618.291016,585.367798 618.138550,585.681885 617.986145,585.996033 
	C617.986145,585.996033 618.000793,586.000000 617.732544,586.095032 
	C617.089966,586.827393 616.715698,587.464722 616.341431,588.102051 
	C615.917175,588.519409 615.492920,588.936829 614.750793,589.761841 
	C613.823669,591.128418 613.214478,592.087402 612.605225,593.046326 
	C611.745544,594.065247 610.885925,595.084167 609.696716,596.526855 
	C609.216248,597.290039 609.065308,597.629395 608.914429,597.968811 
	C608.914429,597.968811 608.983643,597.979370 608.668884,598.089844 
	C606.164490,601.763977 603.974854,605.327576 601.785278,608.891235 
	C601.785278,608.891235 601.863586,608.882751 601.570801,608.988403 
	C600.456970,610.748108 599.635864,612.402283 598.814819,614.056396 
	C598.551697,614.414062 598.288635,614.771790 597.659912,615.590332 
	C586.325378,635.678650 579.032227,656.605103 575.269897,678.755859 
	C570.167908,708.793518 571.350647,738.643250 580.291626,767.738953 
	C584.500305,781.435059 591.207397,794.363403 596.782349,807.639648 
	C596.782349,807.639648 596.711243,807.864624 596.844727,808.267090 
	C597.972778,810.152222 598.967224,811.634827 599.961731,813.117432 
	C600.003967,813.293579 600.046265,813.469788 600.321899,814.137329 
	C602.682861,817.809875 604.810547,820.991211 606.938171,824.172485 
	C606.982971,824.344543 607.027771,824.516541 607.291748,825.090393 
	C608.031677,826.145691 608.552490,826.799194 609.073303,827.452698 
	C609.507385,828.188599 609.941528,828.924561 610.662109,830.109070 
	C611.352234,830.871338 611.755859,831.184998 612.159546,831.498596 
	C612.159546,831.498596 612.139771,831.795715 612.312866,832.138000 
	C613.302979,833.377319 614.119995,834.274414 614.937012,835.171509 
	C614.962830,835.338806 614.988586,835.506165 615.248291,836.113586 
	C616.305298,837.415344 617.128418,838.276917 617.951538,839.138489 
	C618.365967,839.719116 618.780396,840.299744 619.482971,841.288574 
	C620.213562,842.055420 620.656006,842.414001 621.098450,842.772644 
	C621.098450,842.772644 621.093079,842.908264 621.231384,843.217957 
	C622.563416,844.727905 623.757141,845.928101 624.950867,847.128357 
	C629.391174,851.700317 633.831482,856.272339 638.701538,861.247803 
	C640.789490,862.958008 642.447632,864.264709 644.105774,865.571411 
	C645.296387,866.603821 646.486938,867.636169 648.022705,869.037720 
	C648.944092,869.705811 649.520325,870.004700 650.096558,870.303589 
	C650.221375,870.462769 650.346130,870.621948 650.756714,870.882751 
M926.764832,320.560425 
	C926.164612,320.369781 925.564331,320.179169 924.367371,319.479889 
	C923.619446,319.305206 922.871521,319.130524 921.630920,318.396637 
	C918.679443,318.046600 915.727966,317.390839 912.776428,317.390137 
	C703.046814,317.341858 493.317169,317.425903 283.587891,317.177643 
	C268.497192,317.159760 255.869873,329.055054 256.103760,344.777710 
	C256.651276,381.584717 256.277527,418.405334 256.293457,455.220459 
	C256.294189,456.878601 256.458344,458.536682 256.254852,460.856812 
	C256.287598,464.911163 259.291199,464.041168 261.658661,464.041229 
	C484.770233,464.049194 707.881836,464.039185 930.993408,464.042725 
	C940.706238,464.042908 940.054138,465.095428 940.028137,454.915405 
	C939.933655,417.924774 940.053101,380.933655 939.963623,343.942993 
	C939.939575,333.978333 936.333740,325.797180 926.764832,320.560425 
z"/>
<path fill="#4D69B4" opacity="1.000000" stroke="none" 
	d="
M964.038696,298.604248 
	C956.678528,292.139038 947.813599,291.209473 938.171448,291.215790 
	C710.018433,291.364960 481.865295,291.330139 253.712204,291.339600 
	C251.047958,291.339691 248.383713,291.479370 245.258926,291.408966 
	C245.723297,290.677826 246.648193,290.091614 247.791428,289.326782 
	C481.025574,289.149353 714.041382,289.150513 947.525757,289.144714 
	C949.458008,289.626343 950.921631,290.114960 952.722290,290.631287 
	C954.009460,290.883881 954.959595,291.108765 956.256836,291.429169 
	C959.079285,293.770447 961.554626,296.016205 964.038696,298.604248 
z"/>
<path fill="#4D69B4" opacity="1.000000" stroke="none" 
	d="
M225.787140,315.302673 
	C226.254623,316.607941 226.631317,318.231506 226.631531,319.855103 
	C226.656509,506.177582 226.653809,692.500061 226.645157,878.822510 
	C226.645096,879.985718 226.540970,881.148926 226.274414,882.663574 
	C225.750458,881.265442 225.163879,879.515930 225.163498,877.766357 
	C225.122192,692.033936 225.123871,506.301514 225.141388,320.569092 
	C225.141556,318.919708 225.388702,317.270325 225.787140,315.302673 
z"/>
<path fill="#4D69B4" opacity="1.000000" stroke="none" 
	d="
M246.282867,906.305298 
	C248.796570,905.894043 251.604935,905.695129 254.413345,905.694824 
	C402.546356,905.679810 550.679382,905.680115 698.812378,905.692932 
	C701.638916,905.693176 704.465393,905.862610 707.614990,906.196777 
	C706.170349,906.697266 704.402649,907.178467 702.634827,907.178894 
	C552.584656,907.213013 402.534546,907.212158 252.484406,907.184509 
	C250.515427,907.184143 248.546509,906.809998 246.282867,906.305298 
z"/>
<path fill="#4D69B4" opacity="1.000000" stroke="none" 
	d="
M242.718369,291.525085 
	C241.169235,292.713470 239.381546,293.717072 237.243713,294.729309 
	C238.755646,293.605438 240.617722,292.472870 242.718369,291.525085 
z"/>
<path fill="#4D69B4" opacity="1.000000" stroke="none" 
	d="
M239.912109,904.127563 
	C241.195007,904.261292 242.600296,904.709473 244.191925,905.427612 
	C242.930344,905.278992 241.482437,904.860474 239.912109,904.127563 
z"/>
<path fill="#4D69B4" opacity="1.000000" stroke="none" 
	d="
M234.830902,296.097473 
	C234.346893,297.085449 233.516663,298.044128 232.365082,299.036682 
	C232.857376,298.069763 233.671036,297.068970 234.830902,296.097473 
z"/>
<path fill="#4D69B4" opacity="1.000000" stroke="none" 
	d="
M226.240082,886.908203 
	C226.969101,887.822327 227.545792,889.077881 228.028534,890.681274 
	C227.318954,889.769226 226.703354,888.509521 226.240082,886.908203 
z"/>
<path fill="#4D69B4" opacity="1.000000" stroke="none" 
	d="
M226.887161,307.940094 
	C227.085098,308.563721 226.997330,309.332153 226.645432,310.265564 
	C226.454697,309.648682 226.528076,308.866791 226.887161,307.940094 
z"/>
<path fill="#4D69B4" opacity="1.000000" stroke="none" 
	d="
M235.916992,901.672729 
	C236.530685,901.715698 237.197830,902.062622 237.939285,902.700684 
	C237.332565,902.653503 236.651505,902.315063 235.916992,901.672729 
z"/>
<path fill="#4D69B4" opacity="1.000000" stroke="none" 
	d="
M966.414001,662.839294 
	C967.139465,663.199646 967.727356,663.966858 969.094727,665.751282 
	C969.337769,663.342102 969.592773,661.998291 969.591858,660.654602 
	C969.512329,544.976379 969.413025,429.298126 969.321106,313.619873 
	C969.320862,313.290680 969.408875,312.961426 969.691650,312.291748 
	C970.329651,313.981628 971.082703,316.011780 971.083740,318.042328 
	C971.139160,429.228363 971.130188,540.414429 971.133484,651.600525 
	C971.133667,657.754517 971.181885,663.908447 971.139648,670.526855 
	C969.954285,670.695618 968.837036,670.400024 967.386963,670.003784 
	C966.794800,667.684204 966.535645,665.465210 966.414001,662.839294 
z"/>
<path fill="#1E41A1" opacity="1.000000" stroke="none" 
	d="
M596.805664,807.239868 
	C591.207397,794.363403 584.500305,781.435059 580.291626,767.738953 
	C571.350647,738.643250 570.167908,708.793518 575.269897,678.755859 
	C579.032227,656.605103 586.325378,635.678650 597.611694,615.925293 
	C594.378418,624.011475 590.663391,632.157227 587.311157,640.449524 
	C580.484619,657.336548 576.777954,674.942810 574.903809,693.059509 
	C572.057495,720.572998 575.002808,747.465332 583.343811,773.672913 
	C586.952271,785.010803 592.281494,795.801025 596.805664,807.239868 
z"/>
<path fill="#1E41A1" opacity="1.000000" stroke="none" 
	d="
M672.346252,539.954468 
	C680.320312,535.679138 688.410889,530.793640 697.034912,527.181763 
	C720.375793,517.406128 744.793274,512.373230 770.602783,512.443604 
	C769.715942,513.077576 768.391724,513.923096 767.058105,513.938171 
	C734.545410,514.305908 704.338440,523.140442 675.895142,538.552246 
	C674.881714,539.101379 673.771301,539.471619 672.346252,539.954468 
z"/>
<path fill="#1E41A1" opacity="1.000000" stroke="none" 
	d="
M802.151855,514.991211 
	C813.120361,517.141785 824.693420,518.441895 835.353455,522.278564 
	C849.198669,527.261536 862.317627,534.262024 875.893738,540.689331 
	C870.661682,538.464355 865.234985,536.045105 859.917603,533.405701 
	C842.403198,524.711975 823.894104,519.230713 804.656250,516.038025 
	C803.866760,515.906982 803.118042,515.530701 802.151855,514.991211 
z"/>
<path fill="#1E41A1" opacity="1.000000" stroke="none" 
	d="
M775.168823,512.919434 
	C783.049377,513.088318 791.142151,513.558777 799.557495,514.234619 
	C791.713684,514.033630 783.547424,513.627319 775.168823,512.919434 
z"/>
<path fill="#1E41A1" opacity="1.000000" stroke="none" 
	d="
M602.108398,608.771790 
	C603.974854,605.327576 606.164490,601.763977 608.651855,598.059204 
	C606.776917,601.496216 604.604248,605.074280 602.108398,608.771790 
z"/>
<path fill="#1E41A1" opacity="1.000000" stroke="none" 
	d="
M606.914978,823.808472 
	C604.810547,820.991211 602.682861,817.809875 600.546448,814.290527 
	C602.655701,817.116516 604.773743,820.280518 606.914978,823.808472 
z"/>
<path fill="#1E41A1" opacity="1.000000" stroke="none" 
	d="
M650.133057,554.895020 
	C651.982544,553.137085 654.186401,551.364136 656.712646,549.586548 
	C654.852539,551.347961 652.669983,553.114014 650.133057,554.895020 
z"/>
<path fill="#1E41A1" opacity="1.000000" stroke="none" 
	d="
M889.061523,549.824463 
	C891.294800,551.120483 893.619690,552.717468 896.087585,554.614929 
	C893.871399,553.318787 891.512268,551.722107 889.061523,549.824463 
z"/>
<path fill="#1E41A1" opacity="1.000000" stroke="none" 
	d="
M644.127258,865.308960 
	C642.447632,864.264709 640.789490,862.958008 639.020020,861.345093 
	C640.395874,861.916077 641.883118,862.793213 643.647095,863.844360 
	C643.998840,864.361023 644.073792,864.703796 644.127258,865.308960 
z"/>
<path fill="#1E41A1" opacity="1.000000" stroke="none" 
	d="
M599.094849,613.933960 
	C599.635864,612.402283 600.456970,610.748108 601.559509,608.950684 
	C601.018982,610.475342 600.196960,612.143433 599.094849,613.933960 
z"/>
<path fill="#4D69B4" opacity="1.000000" stroke="none" 
	d="
M964.255249,653.995483 
	C965.073730,655.334106 965.721313,656.932190 966.229736,658.784302 
	C965.421814,657.443848 964.753113,655.849426 964.255249,653.995483 
z"/>
<path fill="#1E41A1" opacity="1.000000" stroke="none" 
	d="
M624.924561,846.790344 
	C623.757141,845.928101 622.563416,844.727905 621.299194,843.215393 
	C622.451904,844.086243 623.675110,845.269287 624.924561,846.790344 
z"/>
<path fill="#1E41A1" opacity="1.000000" stroke="none" 
	d="
M599.940308,812.766846 
	C598.967224,811.634827 597.972778,810.152222 596.951172,808.317993 
	C597.922363,809.449646 598.920654,810.932922 599.940308,812.766846 
z"/>
<path fill="#1E41A1" opacity="1.000000" stroke="none" 
	d="
M645.231079,558.947876 
	C645.752014,558.118958 646.589600,557.267883 647.728882,556.409790 
	C647.202942,557.243713 646.375305,558.084717 645.231079,558.947876 
z"/>
<path fill="#1E41A1" opacity="1.000000" stroke="none" 
	d="
M614.925781,834.847839 
	C614.119995,834.274414 613.302979,833.377319 612.458130,832.170532 
	C613.258423,832.748535 614.086426,833.636353 614.925781,834.847839 
z"/>
<path fill="#1E41A1" opacity="1.000000" stroke="none" 
	d="
M617.933350,838.819519 
	C617.128418,838.276917 616.305298,837.415344 615.459351,836.254822 
	C616.262695,836.804138 617.088928,837.652344 617.933350,838.819519 
z"/>
<path fill="#1E41A1" opacity="1.000000" stroke="none" 
	d="
M622.568604,580.958008 
	C622.974792,580.075317 623.694336,579.123718 624.700623,578.065430 
	C624.285583,578.935486 623.583740,579.912292 622.568604,580.958008 
z"/>
<path fill="#1E41A1" opacity="1.000000" stroke="none" 
	d="
M879.057129,543.088501 
	C879.923767,543.348206 880.900757,543.881470 882.013794,544.673035 
	C881.155762,544.408203 880.161621,543.885193 879.057129,543.088501 
z"/>
<path fill="#1E41A1" opacity="1.000000" stroke="none" 
	d="
M931.098022,590.184814 
	C931.892761,590.727417 932.695618,591.588013 933.529297,592.744141 
	C932.742188,592.194092 931.924133,591.348450 931.098022,590.184814 
z"/>
<path fill="#1E41A1" opacity="1.000000" stroke="none" 
	d="
M904.046021,561.680420 
	C904.924133,562.057617 905.877502,562.739136 906.939697,563.703064 
	C906.072754,563.318542 905.097046,562.651672 904.046021,561.680420 
z"/>
<path fill="#1E41A1" opacity="1.000000" stroke="none" 
	d="
M612.889648,592.953308 
	C613.214478,592.087402 613.823669,591.128418 614.710083,590.068726 
	C614.382812,590.932129 613.778442,591.896240 612.889648,592.953308 
z"/>
<path fill="#1E41A1" opacity="1.000000" stroke="none" 
	d="
M922.031860,579.304932 
	C922.850830,579.808289 923.704163,580.625366 924.601929,581.738892 
	C923.786316,581.229797 922.926270,580.424255 922.031860,579.304932 
z"/>
<path fill="#1E41A1" opacity="1.000000" stroke="none" 
	d="
M927.934448,586.146790 
	C928.469177,586.440918 929.024536,586.983948 929.575256,587.778992 
	C929.032043,587.485901 928.493530,586.940857 927.934448,586.146790 
z"/>
<path fill="#1E41A1" opacity="1.000000" stroke="none" 
	d="
M609.064819,827.182922 
	C608.552490,826.799194 608.031677,826.145691 607.521118,825.226318 
	C608.039673,825.611389 608.547974,826.262268 609.064819,827.182922 
z"/>
<path fill="#1E41A1" opacity="1.000000" stroke="none" 
	d="
M886.055054,547.657898 
	C886.615295,547.724915 887.270325,548.065735 888.003052,548.685669 
	C887.437134,548.620361 886.793457,548.276062 886.055054,547.657898 
z"/>
<path fill="#1E41A1" opacity="1.000000" stroke="none" 
	d="
M658.264526,548.959106 
	C658.478638,548.453003 658.973633,547.922668 659.754089,547.409058 
	C659.541504,547.928772 659.043518,548.431824 658.264526,548.959106 
z"/>
<path fill="#1E41A1" opacity="1.000000" stroke="none" 
	d="
M616.619751,588.009399 
	C616.715698,587.464722 617.089966,586.827393 617.728638,586.088379 
	C617.628113,586.630005 617.263123,587.273315 616.619751,588.009399 
z"/>
<path fill="#1E41A1" opacity="1.000000" stroke="none" 
	d="
M883.067505,545.661621 
	C883.616882,545.730652 884.260193,546.078125 885.019409,546.686401 
	C884.477295,546.611572 883.819336,546.275818 883.067505,545.661621 
z"/>
<path fill="#1E41A1" opacity="1.000000" stroke="none" 
	d="
M661.202881,546.947388 
	C661.433228,546.453125 661.952759,545.942871 662.754272,545.423340 
	C662.521606,545.919861 662.006836,546.425598 661.202881,546.947388 
z"/>
<path fill="#1E41A1" opacity="1.000000" stroke="none" 
	d="
M898.062866,556.637329 
	C898.610352,556.723511 899.239746,557.079834 899.928223,557.715881 
	C899.373108,557.632874 898.758972,557.270203 898.062866,556.637329 
z"/>
<path fill="#1E41A1" opacity="1.000000" stroke="none" 
	d="
M640.476379,563.016479 
	C640.640259,562.523987 641.068848,561.977905 641.766968,561.404541 
	C641.604736,561.905823 641.172913,562.434326 640.476379,563.016479 
z"/>
<path fill="#4D69B4" opacity="1.000000" stroke="none" 
	d="
M952.967285,625.246704 
	C953.504944,625.514832 953.989563,626.065063 954.390137,626.895996 
	C953.842163,626.627502 953.378174,626.078186 952.967285,625.246704 
z"/>
<path fill="#4D69B4" opacity="1.000000" stroke="none" 
	d="
M963.199219,649.916199 
	C963.643433,650.259888 963.989380,650.941284 964.190796,651.825317 
	C963.731201,651.436646 963.416138,650.845276 963.199219,649.916199 
z"/>
<path fill="#1E41A1" opacity="1.000000" stroke="none" 
	d="
M621.023560,842.493103 
	C620.656006,842.414001 620.213562,842.055420 619.734131,841.399597 
	C620.114380,841.472778 620.531555,841.843140 621.023560,842.493103 
z"/>
<path fill="#1E41A1" opacity="1.000000" stroke="none" 
	d="
M612.085693,831.255310 
	C611.755859,831.184998 611.352234,830.871338 610.929199,830.291260 
	C611.277100,830.353943 611.644409,830.682983 612.085693,831.255310 
z"/>
<path fill="#1E41A1" opacity="1.000000" stroke="none" 
	d="
M618.206421,585.873657 
	C618.138550,585.681885 618.291016,585.367798 618.710999,584.988708 
	C618.794617,585.199585 618.610657,585.475464 618.206421,585.873657 
z"/>
<path fill="#4D69B4" opacity="1.000000" stroke="none" 
	d="
M942.339722,605.832275 
	C942.620178,605.798279 942.899109,606.058350 943.164795,606.619507 
	C942.880493,606.655762 942.609314,606.391052 942.339722,605.832275 
z"/>
<path fill="#1E41A1" opacity="1.000000" stroke="none" 
	d="
M916.218262,572.994019 
	C916.434570,572.927917 916.776367,573.121277 917.195923,573.610046 
	C916.963806,573.688110 916.653809,573.470703 916.218262,572.994019 
z"/>
<path fill="#1E41A1" opacity="1.000000" stroke="none" 
	d="
M665.872803,543.773315 
	C665.845825,543.532654 666.111145,543.207947 666.703735,542.869751 
	C666.742310,543.133972 666.453613,543.411560 665.872803,543.773315 
z"/>
<path fill="#1E41A1" opacity="1.000000" stroke="none" 
	d="
M930.204712,588.962646 
	C930.426208,588.915894 930.743652,589.132385 931.100708,589.646423 
	C930.860413,589.704590 930.580505,589.465210 930.204712,588.962646 
z"/>
<path fill="#4D69B4" opacity="1.000000" stroke="none" 
	d="
M935.101074,595.107788 
	C935.379028,595.036743 935.687134,595.236816 935.979126,595.728027 
	C935.685791,595.805725 935.408508,595.592285 935.101074,595.107788 
z"/>
<path fill="#1E41A1" opacity="1.000000" stroke="none" 
	d="
M609.148010,597.830322 
	C609.065308,597.629395 609.216248,597.290039 609.644531,596.859619 
	C609.741821,597.076355 609.561707,597.384155 609.148010,597.830322 
z"/>
<path fill="#4D69B4" opacity="1.000000" stroke="none" 
	d="
M937.129395,598.110596 
	C937.404724,598.028870 937.715881,598.222473 938.038147,598.705322 
	C937.754578,598.791687 937.459900,598.588806 937.129395,598.110596 
z"/>
<path fill="#4D69B4" opacity="1.000000" stroke="none" 
	d="
M939.154358,601.067139 
	C939.428528,600.988403 939.729431,601.191040 940.054443,601.676453 
	C939.779419,601.755676 939.480225,601.552063 939.154358,601.067139 
z"/>
<path fill="#4D69B4" opacity="1.000000" stroke="none" 
	d="
M964.117065,653.126465 
	C964.270935,653.105957 964.526367,653.299316 964.452148,653.441284 
	C964.377991,653.583313 963.969727,653.548096 963.969727,653.548096 
	C963.969727,653.548096 963.963257,653.146912 964.117065,653.126465 
z"/>
<path fill="#4D69B4" opacity="1.000000" stroke="none" 
	d="
M958.320190,636.844177 
	C958.629333,636.817261 958.920532,637.090820 959.158325,637.675903 
	C958.837402,637.706482 958.569824,637.425598 958.320190,636.844177 
z"/>
<path fill="#4D69B4" opacity="1.000000" stroke="none" 
	d="
M956.261108,631.878479 
	C956.553223,631.864990 956.817017,632.140503 957.026123,632.713074 
	C956.725281,632.729248 956.479065,632.448364 956.261108,631.878479 
z"/>
<path fill="#4D69B4" opacity="1.000000" stroke="none" 
	d="
M949.359558,617.814331 
	C949.642944,617.793579 949.913818,618.066101 950.151672,618.639771 
	C949.861450,618.663208 949.604187,618.385376 949.359558,617.814331 
z"/>
<path fill="#4D69B4" opacity="1.000000" stroke="none" 
	d="
M944.241028,608.957275 
	C944.528931,608.890259 944.850586,609.113098 945.164917,609.643921 
	C944.863342,609.716919 944.569031,609.481995 944.241028,608.957275 
z"/>
<path fill="#4D69B4" opacity="1.000000" stroke="none" 
	d="
M969.597595,308.948730 
	C967.933411,306.462738 966.445862,303.620758 964.922119,300.415710 
	C965.952087,301.003632 967.018127,301.954681 968.292847,303.150574 
	C968.925720,305.127838 969.349976,306.860321 969.597595,308.948730 
z"/>
<path fill="#003399" opacity="1.000000" stroke="none" 
	d="
M969.574585,310.404694 
	C969.519836,310.190125 969.465027,309.975586 969.528442,309.450043 
	C969.959351,309.339264 970.272095,309.539429 970.390137,309.987000 
	C969.988586,310.291168 969.781616,310.347931 969.574585,310.404694 
z"/>
<path fill="#4D69B4" opacity="1.000000" stroke="none" 
	d="
M969.514771,310.559418 
	C969.781616,310.347931 969.988586,310.291168 970.516113,310.241211 
	C970.660339,310.503510 970.448059,310.724579 969.967773,310.901031 
	C969.735718,310.890808 969.454956,310.714142 969.514771,310.559418 
z"/>
<path fill="#4D69B4" opacity="1.000000" stroke="none" 
	d="
M711.814514,902.678772 
	C708.374023,901.898499 704.721924,900.839661 700.953613,899.454956 
	C701.321350,899.041321 701.805359,898.953613 702.849487,899.142273 
	C703.957703,899.586304 704.505676,899.753906 705.053650,899.921509 
	C707.236755,900.747742 709.419861,901.573975 711.814514,902.678772 
z"/>
<path fill="#1E41A1" opacity="1.000000" stroke="none" 
	d="
M670.032104,883.820923 
	C668.111694,882.966736 666.099731,881.819458 663.976135,880.364746 
	C665.889832,881.214172 667.915283,882.370911 670.032104,883.820923 
z"/>
<path fill="#4D69B4" opacity="1.000000" stroke="none" 
	d="
M693.971985,896.182434 
	C693.099487,896.213867 692.076416,895.963623 690.973083,895.387878 
	C691.869019,895.341858 692.845215,895.621338 693.971985,896.182434 
z"/>
<path fill="#4D69B4" opacity="1.000000" stroke="none" 
	d="
M689.223267,893.989746 
	C688.525879,894.113098 687.805725,893.998413 686.997681,893.605652 
	C686.909790,893.327637 686.754578,892.911194 687.131348,892.858643 
	C687.690247,892.843506 687.872437,892.880981 688.054688,892.918457 
	C688.436646,893.196167 688.818542,893.473877 689.223267,893.989746 
z"/>
<path fill="#1E41A1" opacity="1.000000" stroke="none" 
	d="
M657.017212,875.206665 
	C656.417114,875.188965 655.737427,874.889221 654.992065,874.300964 
	C655.596741,874.316467 656.267151,874.620483 657.017212,875.206665 
z"/>
<path fill="#4D69B4" opacity="1.000000" stroke="none" 
	d="
M698.126038,897.955139 
	C697.468445,898.086792 696.697937,897.931763 695.862183,897.459412 
	C696.535706,897.317566 697.274414,897.493042 698.126038,897.955139 
z"/>
<path fill="#1E41A1" opacity="1.000000" stroke="none" 
	d="
M704.841431,899.728516 
	C704.505676,899.753906 703.957703,899.586304 703.220032,899.197876 
	C703.563293,899.163208 704.096252,899.349426 704.841431,899.728516 
z"/>
<path fill="#1E41A1" opacity="1.000000" stroke="none" 
	d="
M687.958496,892.798584 
	C687.872437,892.880981 687.690247,892.843506 687.260376,892.677734 
	C687.320557,892.430298 687.603821,892.473450 687.958496,892.798584 
z"/>
<path fill="#003399" opacity="1.000000" stroke="none" 
	d="
M674.734131,886.498169 
	C674.567139,886.703003 674.401611,886.725220 674.104858,886.533630 
	C674.227600,886.318420 674.481567,886.317017 674.734131,886.498169 
z"/>
<path fill="#1E41A1" opacity="1.000000" stroke="none" 
	d="
M650.046143,870.055298 
	C649.520325,870.004700 648.944092,869.705811 648.346558,869.137939 
	C648.882141,869.181641 649.438965,869.494324 650.046143,870.055298 
z"/>
<path fill="#182F97" opacity="1.000000" stroke="none" 
	d="
M663.199829,764.945312 
	C635.199341,700.983276 662.558533,629.655212 725.487183,601.738831 
	C776.908081,578.927490 837.605774,595.325806 872.453552,641.443909 
	C915.608765,698.556030 898.200806,783.371521 835.965820,819.221313 
	C774.140747,854.834778 697.177856,832.029297 664.763855,768.482117 
	C664.236206,767.447632 663.843384,766.344299 663.199829,764.945312 
M702.792419,619.202209 
	C700.370972,621.226135 697.626221,622.969910 695.585938,625.324219 
	C688.120178,633.938904 680.141663,642.249207 673.767639,651.632751 
	C666.555725,662.249817 661.468994,674.121277 659.629333,687.105469 
	C658.522705,694.915894 656.088928,702.719299 656.249939,710.484436 
	C656.470520,721.119934 657.947388,731.848145 660.095337,742.287720 
	C661.833618,750.735840 664.333679,759.360962 668.351196,766.921753 
	C673.356384,776.341309 679.331238,785.629578 686.606628,793.355713 
	C694.582092,801.825195 703.927490,809.378967 713.763611,815.616516 
	C723.543274,821.818298 734.351562,826.696960 746.177124,828.390869 
	C753.968567,829.506836 761.702759,831.442505 769.520569,831.824097 
	C776.032349,832.141907 782.626099,830.240051 789.187927,830.207703 
	C797.922180,830.164551 806.232544,828.574524 814.053955,824.935425 
	C823.753540,820.422424 833.976562,816.510315 842.667114,810.461792 
	C860.963379,797.727966 874.728149,780.772156 883.008301,759.881714 
	C887.670837,748.118286 892.059814,736.193420 891.089050,723.077393 
	C890.684448,717.610962 890.610718,712.052490 891.102722,706.600525 
	C892.345703,692.827393 888.296143,679.874329 883.064270,667.848511 
	C878.057739,656.340515 870.847717,645.392456 862.801270,635.696106 
	C849.689087,619.895447 832.805908,608.705811 813.095642,602.347717 
	C806.262512,600.143494 799.167603,597.291443 792.192383,597.291626 
	C777.856567,597.291992 763.467041,595.354553 749.084839,598.727234 
	C739.929077,600.874268 731.024719,603.332275 722.714783,607.604553 
	C716.095093,611.007812 709.772339,614.988647 702.792419,619.202209 
z"/>
<path fill="#25379B" opacity="1.000000" stroke="none" 
	d="
M922.123596,318.955841 
	C922.871521,319.130524 923.619446,319.305206 924.691406,319.944916 
	C925.658081,320.616882 926.300781,320.823853 926.943481,321.030823 
	C936.333740,325.797180 939.939575,333.978333 939.963623,343.942993 
	C940.053101,380.933655 939.933655,417.924774 940.028137,454.915405 
	C940.054138,465.095428 940.706238,464.042908 930.993408,464.042725 
	C707.881836,464.039185 484.770233,464.049194 261.658661,464.041229 
	C259.291199,464.041168 256.287598,464.911163 256.531158,460.703735 
	C258.105621,460.335785 259.403809,460.120941 261.198914,459.951599 
	C262.195221,460.015839 262.694580,460.050964 263.193909,460.050995 
	C485.588470,460.058258 707.983032,460.048187 930.377502,460.165527 
	C935.252808,460.168121 936.158997,458.336243 936.143860,454.010468 
	C936.015625,417.361603 935.793152,380.708679 936.242737,344.064911 
	C936.374878,333.288727 928.973694,323.804413 919.056519,321.349426 
	C920.135437,320.345612 921.129517,319.650726 922.123596,318.955841 
z"/>
<path fill="#1E41A1" opacity="1.000000" stroke="none" 
	d="
M921.877258,318.676239 
	C921.129517,319.650726 920.135437,320.345612 918.595520,321.437378 
	C915.050720,321.867950 912.051758,321.931183 909.052795,321.931244 
	C702.057617,321.936035 495.062408,321.935730 288.067200,321.936401 
	C286.233917,321.936401 284.398651,321.888000 282.567719,321.955292 
	C269.249664,322.444519 262.372192,328.353363 261.218018,340.116333 
	C260.737457,345.013824 260.949524,349.984955 260.946777,354.922668 
	C260.928497,387.755249 260.941803,420.587799 260.927277,453.420380 
	C260.926331,455.582306 260.780426,457.744202 260.701965,459.906097 
	C259.403809,460.120941 258.105621,460.335785 256.676910,460.372711 
	C256.458344,458.536682 256.294189,456.878601 256.293457,455.220459 
	C256.277527,418.405334 256.651276,381.584717 256.103760,344.777710 
	C255.869873,329.055054 268.497192,317.159760 283.587891,317.177643 
	C493.317169,317.425903 703.046814,317.341858 912.776428,317.390137 
	C915.727966,317.390839 918.679443,318.046600 921.877258,318.676239 
z"/>
<path fill="#1E41A1" opacity="1.000000" stroke="none" 
	d="
M926.854126,320.795624 
	C926.300781,320.823853 925.658081,320.616882 924.989746,320.199249 
	C925.564331,320.179169 926.164612,320.369781 926.854126,320.795624 
z"/>
<path fill="#003399" opacity="1.000000" stroke="none" 
	d="
M703.055054,618.957642 
	C709.772339,614.988647 716.095093,611.007812 722.714783,607.604553 
	C731.024719,603.332275 739.929077,600.874268 749.084839,598.727234 
	C763.467041,595.354553 777.856567,597.291992 792.192383,597.291626 
	C799.167603,597.291443 806.262512,600.143494 813.095642,602.347717 
	C832.805908,608.705811 849.689087,619.895447 862.801270,635.696106 
	C870.847717,645.392456 878.057739,656.340515 883.064270,667.848511 
	C888.296143,679.874329 892.345703,692.827393 891.102722,706.600525 
	C890.610718,712.052490 890.684448,717.610962 891.089050,723.077393 
	C892.059814,736.193420 887.670837,748.118286 883.008301,759.881714 
	C874.728149,780.772156 860.963379,797.727966 842.667114,810.461792 
	C833.976562,816.510315 823.753540,820.422424 814.053955,824.935425 
	C806.232544,828.574524 797.922180,830.164551 789.187927,830.207703 
	C782.626099,830.240051 776.032349,832.141907 769.520569,831.824097 
	C761.702759,831.442505 753.968567,829.506836 746.177124,828.390869 
	C734.351562,826.696960 723.543274,821.818298 713.763611,815.616516 
	C703.927490,809.378967 694.582092,801.825195 686.606628,793.355713 
	C679.331238,785.629578 673.356384,776.341309 668.351196,766.921753 
	C664.333679,759.360962 661.833618,750.735840 660.095337,742.287720 
	C657.947388,731.848145 656.470520,721.119934 656.249939,710.484436 
	C656.088928,702.719299 658.522705,694.915894 659.629333,687.105469 
	C661.468994,674.121277 666.555725,662.249817 673.767639,651.632751 
	C680.141663,642.249207 688.120178,633.938904 695.585938,625.324219 
	C697.626221,622.969910 700.370972,621.226135 703.055054,618.957642 
z"/>
<path fill="#003399" opacity="1.000000" stroke="none" 
	d="
M261.198914,459.951599 
	C260.780426,457.744202 260.926331,455.582306 260.927277,453.420380 
	C260.941803,420.587799 260.928497,387.755249 260.946777,354.922668 
	C260.949524,349.984955 260.737457,345.013824 261.218018,340.116333 
	C262.372192,328.353363 269.249664,322.444519 282.567719,321.955292 
	C284.398651,321.888000 286.233917,321.936401 288.067200,321.936401 
	C495.062408,321.935730 702.057617,321.936035 909.052795,321.931244 
	C912.051758,321.931183 915.050720,321.867950 918.510742,321.746277 
	C928.973694,323.804413 936.374878,333.288727 936.242737,344.064911 
	C935.793152,380.708679 936.015625,417.361603 936.143860,454.010468 
	C936.158997,458.336243 935.252808,460.168121 930.377502,460.165527 
	C707.983032,460.048187 485.588470,460.058258 263.193909,460.050995 
	C262.694580,460.050964 262.195221,460.015839 261.198914,459.951599 
M780.156128,346.291565 
	C779.757751,347.647156 779.015198,349.001892 779.011780,350.358459 
	C778.943848,377.738647 778.928589,405.119141 779.047607,432.498962 
	C779.054138,433.999451 780.320374,435.494446 781.492249,437.521301 
	C782.478027,440.843597 784.533325,442.023712 788.137634,442.012115 
	C828.076050,441.883362 868.015137,441.941925 907.953979,441.917908 
	C913.557495,441.914551 917.928406,437.486237 917.930115,431.951904 
	C917.938416,405.492401 917.858337,379.032501 918.007141,352.573822 
	C918.032471,348.073547 918.087463,344.008057 912.778748,341.316376 
	C911.430359,340.884674 910.082581,340.078064 908.733459,340.075806 
	C868.627441,340.008240 828.521179,339.997528 788.415344,340.110748 
	C786.948303,340.114929 785.484985,341.457581 783.750061,342.684509 
	C783.433594,343.379974 783.117126,344.075439 782.266907,344.988068 
	C781.808838,345.333099 781.350769,345.678131 780.156128,346.291565 
M501.195465,410.693634 
	C504.500061,411.761719 507.748566,413.423553 511.123932,413.742310 
	C515.028809,414.111023 519.044983,413.040802 523.013367,413.036377 
	C575.504028,412.978119 627.994690,412.990814 680.485413,413.016052 
	C683.305786,413.017395 686.219238,413.791901 688.920532,413.292694 
	C691.718445,412.775696 694.310547,411.144867 697.059875,409.406311 
	C697.065369,409.008453 697.070801,408.610596 697.146484,407.250366 
	C697.223022,396.126495 697.299500,385.002625 697.683228,373.314789 
	C697.564575,369.392761 695.015625,369.058136 691.859375,369.060486 
	C629.994263,369.106415 568.129028,369.119110 506.264069,369.026581 
	C502.850800,369.021454 500.487427,369.987000 498.260864,373.296326 
	C497.866302,373.976410 497.134003,374.653534 497.127960,375.337097 
	C497.040314,385.214691 496.993530,395.093903 497.122284,404.970306 
	C497.135529,405.985687 498.337463,406.985535 499.279175,408.496399 
	C499.856018,409.000031 500.432861,409.503662 501.195465,410.693634 
z"/>
<path fill="#FAFBFD" opacity="1.000000" stroke="none" 
	d="
M697.375977,373.878754 
	C697.299500,385.002625 697.223022,396.126495 696.641113,407.804901 
	C695.310120,408.425171 694.484375,408.548370 693.658691,408.548401 
	C654.698608,408.549377 615.738525,408.537628 576.778442,408.531860 
	C553.135986,408.528351 529.492981,408.457550 505.851410,408.603424 
	C501.734985,408.628815 500.351105,407.435944 500.559204,403.172821 
	C500.940277,395.365692 500.917480,387.518921 500.630035,379.704590 
	C500.328491,371.508759 501.255402,372.889221 507.789520,372.884918 
	C569.060181,372.844360 630.330811,372.851105 691.601440,372.902863 
	C693.526550,372.904480 695.451172,373.539185 697.375977,373.878754 
z"/>
<path fill="#1E41A1" opacity="1.000000" stroke="none" 
	d="
M697.529602,373.596771 
	C695.451172,373.539185 693.526550,372.904480 691.601440,372.902863 
	C630.330811,372.851105 569.060181,372.844360 507.789520,372.884918 
	C501.255402,372.889221 500.328491,371.508759 500.630035,379.704590 
	C500.917480,387.518921 500.940277,395.365692 500.559204,403.172821 
	C500.351105,407.435944 501.734985,408.628815 505.851410,408.603424 
	C529.492981,408.457550 553.135986,408.528351 576.778442,408.531860 
	C615.738525,408.537628 654.698608,408.549377 693.658691,408.548401 
	C694.484375,408.548370 695.310120,408.425171 696.606018,408.286072 
	C697.070801,408.610596 697.065369,409.008453 696.558472,409.705780 
	C631.041260,410.005920 566.025452,410.006622 501.009705,410.007324 
	C500.432861,409.503662 499.856018,409.000031 499.134827,407.776672 
	C498.991364,395.710297 498.992279,384.363708 498.993195,373.017090 
	C500.487427,369.987000 502.850800,369.021454 506.264069,369.026581 
	C568.129028,369.119110 629.994263,369.106415 691.859375,369.060486 
	C695.015625,369.058136 697.564575,369.392761 697.529602,373.596771 
z"/>
<path fill="#25379B" opacity="1.000000" stroke="none" 
	d="
M782.800720,344.770935 
	C783.117126,344.075439 783.433594,343.379974 784.351196,342.394958 
	C827.665466,342.090942 870.378662,342.076477 913.091858,342.062012 
	C918.087463,344.008057 918.032471,348.073547 918.007141,352.573822 
	C917.858337,379.032501 917.938416,405.492401 917.930115,431.951904 
	C917.928406,437.486237 913.557495,441.914551 907.953979,441.917908 
	C868.015137,441.941925 828.076050,441.883362 788.137634,442.012115 
	C784.533325,442.023712 782.478027,440.843597 781.252319,436.988220 
	C781.194519,435.964294 781.376648,435.473480 781.865906,435.237885 
	C784.675293,436.476288 787.173706,438.304565 789.680542,438.316193 
	C828.998047,438.498688 868.316589,438.449707 907.634949,438.446442 
	C914.035034,438.445892 915.129456,437.287872 915.125854,430.868378 
	C915.111145,404.378479 915.105896,377.888611 915.125183,351.398712 
	C915.129944,344.820435 913.939697,343.590210 907.240051,343.590271 
	C868.088257,343.590546 828.936401,343.567413 789.784790,343.657379 
	C787.554993,343.662506 785.327271,344.596466 783.023254,345.017090 
	C782.947937,344.936035 782.800720,344.770935 782.800720,344.770935 
z"/>
<path fill="#0B2793" opacity="1.000000" stroke="none" 
	d="
M501.102600,410.350464 
	C566.025452,410.006622 631.041260,410.005920 696.524841,410.003235 
	C694.310547,411.144867 691.718445,412.775696 688.920532,413.292694 
	C686.219238,413.791901 683.305786,413.017395 680.485413,413.016052 
	C627.994690,412.990814 575.504028,412.978119 523.013367,413.036377 
	C519.044983,413.040802 515.028809,414.111023 511.123932,413.742310 
	C507.748566,413.423553 504.500061,411.761719 501.102600,410.350464 
z"/>
<path fill="#06148A" opacity="1.000000" stroke="none" 
	d="
M912.935303,341.689209 
	C870.378662,342.076477 827.665466,342.090942 784.486084,342.140930 
	C785.484985,341.457581 786.948303,340.114929 788.415344,340.110748 
	C828.521179,339.997528 868.627441,340.008240 908.733459,340.075806 
	C910.082581,340.078064 911.430359,340.884674 912.935303,341.689209 
z"/>
<path fill="#06148A" opacity="1.000000" stroke="none" 
	d="
M781.558838,434.982635 
	C781.376648,435.473480 781.194519,435.964294 781.006287,436.723572 
	C780.320374,435.494446 779.054138,433.999451 779.047607,432.498962 
	C778.928589,405.119141 778.943848,377.738647 779.011780,350.358459 
	C779.015198,349.001892 779.757751,347.647156 780.600952,346.346191 
	C781.141052,346.668915 781.313049,346.872009 781.581238,347.381897 
	C781.500732,348.490051 781.400757,349.226379 781.022461,350.190002 
	C780.535095,351.371918 780.144775,352.326324 780.143433,353.281250 
	C780.109070,377.852020 780.095276,402.422913 780.167847,426.993500 
	C780.171814,428.346619 780.951111,429.697449 781.446899,431.437164 
	C781.535828,432.877533 781.547363,433.930084 781.558838,434.982635 
z"/>
<path fill="#06148A" opacity="1.000000" stroke="none" 
	d="
M498.627014,373.156708 
	C498.992279,384.363708 498.991364,395.710297 498.989136,407.524719 
	C498.337463,406.985535 497.135529,405.985687 497.122284,404.970306 
	C496.993530,395.093903 497.040314,385.214691 497.127960,375.337097 
	C497.134003,374.653534 497.866302,373.976410 498.627014,373.156708 
z"/>
<path fill="#25379B" opacity="1.000000" stroke="none" 
	d="
M781.561768,347.010132 
	C781.313049,346.872009 781.141052,346.668915 780.969238,346.211975 
	C781.350769,345.678131 781.808838,345.333099 782.533813,344.879517 
	C782.800720,344.770935 782.947937,344.936035 782.913818,345.312500 
	C782.440430,346.129333 782.001099,346.569733 781.561768,347.010132 
z"/>
<path fill="#C0DDD4" opacity="1.000000" stroke="none" 
	d="
M781.581238,347.381927 
	C782.001099,346.569733 782.440430,346.129333 782.989136,345.393555 
	C785.327271,344.596466 787.554993,343.662506 789.784790,343.657379 
	C828.936401,343.567413 868.088257,343.590546 907.240051,343.590271 
	C913.939697,343.590210 915.129944,344.820435 915.125183,351.398712 
	C915.105896,377.888611 915.111145,404.378479 915.125854,430.868378 
	C915.129456,437.287872 914.035034,438.445892 907.634949,438.446442 
	C868.316589,438.449707 828.998047,438.498688 789.680542,438.316193 
	C787.173706,438.304565 784.675293,436.476288 781.865906,435.237885 
	C781.547363,433.930084 781.535828,432.877533 781.620911,430.997498 
	C781.761658,404.403320 781.811768,378.636597 781.826477,352.869904 
	C781.827026,351.900940 781.483765,350.931763 781.300720,349.962708 
	C781.400757,349.226379 781.500732,348.490051 781.581238,347.381927 
M812.500122,347.626465 
	C805.008728,347.613190 797.510986,347.777313 790.028931,347.506317 
	C786.655090,347.384094 785.764160,348.419312 785.780518,351.734009 
	C785.909729,377.870544 785.953918,404.008698 785.762695,430.144409 
	C785.732849,434.218323 787.267334,434.702087 790.736450,434.693359 
	C829.359375,434.595825 867.982849,434.595215 906.605652,434.725189 
	C910.489929,434.738281 911.690002,433.776489 911.658081,429.677094 
	C911.456238,403.708191 911.495239,377.736267 911.672546,351.766846 
	C911.696228,348.295715 910.517822,347.456573 907.390076,347.466614 
	C876.093567,347.567108 844.796814,347.584930 812.500122,347.626465 
z"/>
<path fill="#25379B" opacity="1.000000" stroke="none" 
	d="
M781.022461,350.190002 
	C781.483765,350.931763 781.827026,351.900940 781.826477,352.869904 
	C781.811768,378.636597 781.761658,404.403320 781.543457,430.609680 
	C780.951111,429.697449 780.171814,428.346619 780.167847,426.993500 
	C780.095276,402.422913 780.109070,377.852020 780.143433,353.281250 
	C780.144775,352.326324 780.535095,351.371918 781.022461,350.190002 
z"/>
<path fill="#139641" opacity="1.000000" stroke="none" 
	d="
M813.000122,347.626282 
	C844.796814,347.584930 876.093567,347.567108 907.390076,347.466614 
	C910.517822,347.456573 911.696228,348.295715 911.672546,351.766846 
	C911.495239,377.736267 911.456238,403.708191 911.658081,429.677094 
	C911.690002,433.776489 910.489929,434.738281 906.605652,434.725189 
	C867.982849,434.595215 829.359375,434.595825 790.736450,434.693359 
	C787.267334,434.702087 785.732849,434.218323 785.762695,430.144409 
	C785.953918,404.008698 785.909729,377.870544 785.780518,351.734009 
	C785.764160,348.419312 786.655090,347.384094 790.028931,347.506317 
	C797.510986,347.777313 805.008728,347.613190 813.000122,347.626282 
M844.114685,358.689941 
	C828.233215,369.281128 812.351746,379.872314 796.326782,390.559235 
	C797.174805,391.585266 797.411377,392.054840 797.792114,392.305695 
	C813.908020,402.926178 830.005371,413.576080 846.234253,424.021515 
	C847.326172,424.724335 849.771729,424.417725 850.998657,423.645142 
	C861.414246,417.086212 871.708191,410.333221 882.007263,403.590485 
	C888.187317,399.544495 894.311340,395.412842 900.523865,391.277527 
	C899.887939,390.354370 899.701172,389.825714 899.327881,389.578400 
	C885.000061,380.084503 870.793945,370.393158 856.203308,361.320404 
	C853.024658,359.343872 849.359680,356.017792 844.114685,358.689941 
z"/>
<path fill="#ECC106" opacity="1.000000" stroke="none" 
	d="
M844.400024,358.457886 
	C849.359680,356.017792 853.024658,359.343872 856.203308,361.320404 
	C870.793945,370.393158 885.000061,380.084503 899.327881,389.578400 
	C899.701172,389.825714 899.887939,390.354370 900.523865,391.277527 
	C894.311340,395.412842 888.187317,399.544495 882.007263,403.590485 
	C871.708191,410.333221 861.414246,417.086212 850.998657,423.645142 
	C849.771729,424.417725 847.326172,424.724335 846.234253,424.021515 
	C830.005371,413.576080 813.908020,402.926178 797.792114,392.305695 
	C797.411377,392.054840 797.174805,391.585266 796.326782,390.559235 
	C812.351746,379.872314 828.233215,369.281128 844.400024,358.457886 
M828.063599,382.473389 
	C827.753418,383.343994 827.443237,384.214600 826.493469,385.516571 
	C826.074219,386.710510 825.381042,387.881561 825.279175,389.101990 
	C824.478027,398.703766 829.386719,405.531219 836.759766,410.591370 
	C848.864746,418.899017 866.879517,411.836426 870.502869,397.360107 
	C870.586121,396.410645 870.669373,395.461182 871.142212,393.619751 
	C870.218445,389.130676 870.219482,384.158966 868.180481,380.251953 
	C863.807312,371.872589 856.229370,367.717926 846.681763,368.703674 
	C838.230408,369.576263 831.619202,373.628540 828.063599,382.473389 
z"/>
<path fill="#27166E" opacity="1.000000" stroke="none" 
	d="
M870.132690,397.814209 
	C866.879517,411.836426 848.864746,418.899017 836.759766,410.591370 
	C829.386719,405.531219 824.478027,398.703766 825.279175,389.101990 
	C825.381042,387.881561 826.074219,386.710510 827.177734,385.461517 
	C830.663269,385.323425 833.465271,385.149475 836.265686,385.172913 
	C849.078308,385.280182 860.027771,390.427002 870.132690,397.814209 
M846.958313,399.784668 
	C847.187073,401.009308 847.415833,402.233948 847.848633,404.550812 
	C850.525208,401.005585 850.444519,399.435944 847.168823,398.356140 
	C848.900330,398.006165 850.631836,397.656219 853.487366,397.079041 
	C851.476135,395.420258 850.307556,393.862183 848.835388,393.483154 
	C848.053284,393.281769 846.429626,394.954956 845.805420,396.115234 
	C845.487183,396.706787 846.537292,398.034424 846.958313,399.784668 
M858.753235,406.845642 
	C861.196533,404.890472 863.708008,403.008240 865.987610,400.877991 
	C866.241882,400.640411 865.178284,398.992615 865.013245,398.630066 
	C862.251282,400.743042 860.031677,402.441071 857.103638,404.026031 
	C855.564636,403.905273 854.025574,403.784485 852.060181,403.630249 
	C853.174377,407.361969 854.635193,409.081055 858.753235,406.845642 
M838.232056,404.119110 
	C839.251465,404.119110 840.270874,404.119110 840.311340,404.119110 
	C838.889221,402.396820 837.416992,400.613800 835.944763,398.830750 
	C835.660522,398.941315 835.376282,399.051849 835.092041,399.162384 
	C836.006897,400.625183 836.921814,402.087952 838.232056,404.119110 
z"/>
<path fill="#27166E" opacity="1.000000" stroke="none" 
	d="
M828.443970,382.042480 
	C831.619202,373.628540 838.230408,369.576263 846.681763,368.703674 
	C856.229370,367.717926 863.807312,371.872589 868.180481,380.251953 
	C870.219482,384.158966 870.218445,389.130676 870.640503,393.907135 
	C864.848816,390.975922 859.921143,386.356049 854.182617,384.872498 
	C845.911926,382.734344 837.052307,382.874542 828.443970,382.042480 
z"/>
<path fill="#C0DDD4" opacity="1.000000" stroke="none" 
	d="
M828.253784,382.257935 
	C837.052307,382.874542 845.911926,382.734344 854.182617,384.872498 
	C859.921143,386.356049 864.848816,390.975922 870.445679,394.353119 
	C870.669373,395.461182 870.586121,396.410645 870.317749,397.587158 
	C860.027771,390.427002 849.078308,385.280182 836.265686,385.172913 
	C833.465271,385.149475 830.663269,385.323425 827.497559,385.245850 
	C827.443237,384.214600 827.753418,383.343994 828.253784,382.257935 
z"/>
<path fill="#4D69B4" opacity="1.000000" stroke="none" 
	d="
M857.812134,404.139130 
	C860.031677,402.441071 862.251282,400.743042 865.013245,398.630066 
	C865.178284,398.992615 866.241882,400.640411 865.987610,400.877991 
	C863.708008,403.008240 861.196533,404.890472 858.389038,406.445831 
	C857.953918,405.410400 857.883057,404.774780 857.812134,404.139130 
z"/>
<path fill="#25379B" opacity="1.000000" stroke="none" 
	d="
M846.968933,399.029358 
	C846.537292,398.034424 845.487183,396.706787 845.805420,396.115234 
	C846.429626,394.954956 848.053284,393.281769 848.835388,393.483154 
	C850.307556,393.862183 851.476135,395.420258 853.487366,397.079041 
	C850.631836,397.656219 848.900330,398.006165 847.082581,398.679749 
	C846.996338,399.003357 846.968933,399.029358 846.968933,399.029358 
z"/>
<path fill="#4D69B4" opacity="1.000000" stroke="none" 
	d="
M838.034424,403.834930 
	C836.921814,402.087952 836.006897,400.625183 835.092041,399.162384 
	C835.376282,399.051849 835.660522,398.941315 835.944763,398.830750 
	C837.416992,400.613800 838.889221,402.396820 840.311340,404.119110 
	C840.270874,404.119110 839.251465,404.119110 838.034424,403.834930 
z"/>
<path fill="#25379B" opacity="1.000000" stroke="none" 
	d="
M857.457886,404.082581 
	C857.883057,404.774780 857.953918,405.410400 858.030762,406.360535 
	C854.635193,409.081055 853.174377,407.361969 852.060181,403.630249 
	C854.025574,403.784485 855.564636,403.905273 857.457886,404.082581 
z"/>
<path fill="#25379B" opacity="1.000000" stroke="none" 
	d="
M847.009766,398.990356 
	C850.444519,399.435944 850.525208,401.005585 847.848633,404.550812 
	C847.415833,402.233948 847.187073,401.009308 846.963623,399.407013 
	C846.968933,399.029358 846.996338,399.003357 847.009766,398.990356 
z"/>
</svg>